<?xml version="1.0" encoding="UTF-8"?>
<svg id="b" data-name="Layer 2" xmlns="http://www.w3.org/2000/svg" viewBox="0 0 569.19 171.68">
  <g id="c" data-name="Layer 1">
    <g>
      <g id="d" data-name="Mastercard Symbol Mark">
        <rect x="434.78" y="33.77" width="57.22" height="102.83" fill="#ff5f00" stroke-width="0"/>
        <path d="M438.41,85.19c0-20.86,9.77-39.44,24.98-51.41-11.13-8.76-25.16-13.98-40.41-13.98-36.12,0-65.39,29.28-65.39,65.39s29.28,65.4,65.39,65.4c15.25,0,29.29-5.22,40.41-13.98-15.21-11.98-24.98-30.55-24.98-51.42" fill="#eb001b" stroke-width="0"/>
        <path d="M569.19,85.19c0,36.12-29.28,65.4-65.39,65.4-15.26,0-29.29-5.22-40.42-13.98,15.21-11.98,24.98-30.55,24.98-51.42s-9.77-39.44-24.98-51.41c11.12-8.76,25.16-13.98,40.42-13.98,36.11,0,65.39,29.28,65.39,65.39" fill="#f79e1b" stroke-width="0"/>
      </g>
      <polygon id="e" data-name="Separator" points="329.96 171.68 327.41 171.68 327.41 164.72 327.41 .78 329.96 .78 329.96 9.96 329.96 87.22 329.96 171.68" fill="#231f20" stroke-width="0"/>
      <g id="f" data-name="Arnold Palmer Invitational">
        <path d="M13.55,146.12c-1.34,0-1.72,1-1.72,2.06l-.17,18.61c0,1.06.55,2.06,1.58,2.06v.62c-.72,0-1.75-.14-2.92-.14-1.03,0-2.06.14-2.75.14v-.62c.96,0,1.51-1,1.51-2.06l-.17-18.61c0-1.06-.38-2.06-1.72-2.06v-.62c1.06,0,2.09.14,3.12.14,1.17,0,2.2-.14,3.23-.14v.62ZM22.2,166.17c0,1.75-.41,2.23-2.17,2.68v.62c.86,0,1.86-.14,3.16-.14.99,0,1.99.14,3.12.14v-.62c-1.99-.44-2.4-.93-2.4-4.53v-13.09l17.65,18.24h.76v-20.67c0-1.75.41-2.23,2.26-2.68v-.62c-.99,0-1.99.14-2.99.14s-1.99-.14-3.33-.14v.62c2.23.45,2.65.93,2.65,6.94v11.33l-14.73-15.25c-1.13-1.17-2.13-2.48-3.23-3.64h-.75v20.67ZM61.35,169.89l9.24-21.84c.55-1.3.93-1.78,2.13-1.92v-.62c-1.03,0-2.02.14-3.02.14s-1.99-.14-2.99-.14v.62c1.17.17,1.48.45,1.48,1.52,0,.2-.07,1.27-.45,2.26l-6.25,15.62-6.15-17.41c-.28-.79-.38-1.17-.38-1.37,0-.34.93-.55,1.27-.62v-.62c-1.07,0-2.13.14-3.2.14s-2.13-.14-3.19-.14v.62c.96.14,1.17.24,1.72,1.61l8.86,22.16h.93ZM84.91,145.5c-1.03,0-2.06.14-3.23.14-1.03,0-2.06-.14-3.12-.14v.62c1.34,0,1.72,1,1.72,2.06l.17,18.61c0,1.06-.55,2.06-1.51,2.06v.62c.69,0,1.72-.14,2.75-.14,1.17,0,2.2.14,2.92.14v-.62c-1.03,0-1.58-1-1.58-2.06l.17-18.61c0-1.06.38-2.06,1.72-2.06v-.62ZM99.92,147.05l.1,19.75c0,1.27-.48,1.61-2.37,2.06v.62c1.24,0,2.47-.13,3.71-.13s2.47.13,3.71.13v-.62c-1.79-.44-2.3-.79-2.3-2.06l.1-19.75h4.81c2.23,0,2.99.59,3.61,2.4h.62l.14-4.36h-.17c-.55.21-1.37.41-2.02.41-2.82,0-5.63.13-8.45.13s-5.63-.13-8.45-.13c-.65,0-1.48-.21-2.03-.41h-.17l.14,4.36h.62c.62-1.82,1.38-2.4,3.61-2.4h4.81ZM128.05,162.6l1.34,3.6c.17.48.38.93.38,1.48,0,.41-.75.86-1.2,1.17v.62c1.03,0,2.06-.13,3.09-.13s2.06.13,3.09.13v-.62c-1.65-.62-2.13-1.24-2.71-2.88l-7.45-20.88h-.59l-8.31,20.88c-.62,1.51-.86,2.33-2.58,2.88v.62c1.06,0,1.96-.13,2.85-.13s1.76.13,2.62.13v-.62c-.86-.31-1.48-.75-1.48-1.37,0-.34,0-1.2.24-1.86l1.1-3.02h9.62ZM123.55,150l4.05,11.2h-8.62l4.57-11.2ZM144.34,147.05l.1,19.75c0,1.27-.48,1.61-2.37,2.06v.62c1.24,0,2.47-.13,3.71-.13s2.48.13,3.71.13v-.62c-1.78-.44-2.3-.79-2.3-2.06l.1-19.75h4.81c2.23,0,2.99.59,3.6,2.4h.62l.14-4.36h-.17c-.55.21-1.37.41-2.02.41-2.82,0-5.63.13-8.45.13s-5.63-.13-8.45-.13c-.65,0-1.48-.21-2.03-.41h-.17l.14,4.36h.62c.62-1.82,1.37-2.4,3.61-2.4h4.81ZM168.62,145.5c-1.03,0-2.06.14-3.23.14-1.03,0-2.06-.14-3.12-.14v.62c1.33,0,1.72,1,1.72,2.06l.17,18.61c0,1.06-.55,2.06-1.51,2.06v.62c.69,0,1.72-.14,2.75-.14,1.17,0,2.2.14,2.92.14v-.62c-1.03,0-1.58-1-1.58-2.06l.17-18.61c0-1.06.38-2.06,1.72-2.06v-.62ZM188.26,145.09c-7.14,0-12.4,5.36-12.4,12.4s5.26,12.4,12.4,12.4,12.4-5.36,12.4-12.4-5.26-12.4-12.4-12.4M188.26,168.78c-6.42,0-9.14-5.01-9.14-11.3s2.71-11.3,9.14-11.3,9.13,5.02,9.13,11.3-2.71,11.3-9.13,11.3M209.31,166.17c0,1.75-.41,2.23-2.16,2.68v.62c.86,0,1.85-.14,3.16-.14,1,0,1.99.14,3.13.14v-.62c-1.99-.44-2.41-.93-2.41-4.53v-13.09l17.65,18.24h.76v-20.67c0-1.75.41-2.23,2.27-2.68v-.62c-1,0-2,.14-2.99.14s-1.99-.14-3.33-.14v.62c2.23.45,2.64.93,2.64,6.94v11.33l-14.73-15.25c-1.13-1.17-2.13-2.48-3.23-3.64h-.76v20.67ZM251.41,162.6l1.34,3.6c.17.48.38.93.38,1.48,0,.41-.75.86-1.2,1.17v.62c1.03,0,2.06-.13,3.09-.13s2.06.13,3.09.13v-.62c-1.64-.62-2.13-1.24-2.71-2.88l-7.45-20.88h-.58l-8.31,20.88c-.61,1.51-.86,2.33-2.57,2.88v.62c1.06,0,1.96-.13,2.85-.13s1.75.13,2.61.13v-.62c-.86-.31-1.47-.75-1.47-1.37,0-.34,0-1.2.24-1.86l1.1-3.02h9.62ZM246.91,150l4.05,11.2h-8.62l4.57-11.2ZM265.56,166.79c0,1.06-.45,2.06-1.61,2.06v.62c2.54,0,5.08-.13,7.65-.13s6.6,0,7.77.31l.86-4.13-.55-.17c-.89,1.89-1.95,2.82-4.57,2.82h-6.79c0-2.68-.21-6.67-.21-9.96s.21-8.38.21-10.03c0-1.06.44-2.06,1.61-2.06v-.62c-.86,0-1.89.14-3.05.14-1.04,0-2.06-.14-3.3-.14v.62c1.85.28,1.99.55,1.99,12.09v8.58Z" fill="#e1221c" stroke-width="0"/>
        <g>
          <path d="M89.55,127.39c-.34-1.06-.01-2.23.79-3.44.79-1.2,2.46-2.67,2.13-1.5-.33,1.17.13,1.96.13,1.96-.68,2.52-2.72,4.05-3.05,2.98M34.78,125.45c.55-2.35,1.5-5.14,3.58-8.11,0,0,23.39-27.67,26.67-33.22,0,0,5.69-8.29,2.24-8.56-3.45-.28-6.45,1.45-7.58,2.71-1.13,1.26-17.37,20.49-25.4,37.36,0,0-9.18,13.68-19.21,18.32-10.04,4.66-14.29-8.68-4.41-29.38,9.87-20.7,19-33.96,38.64-51.25,19.64-17.3,36.27-21.15,45.02-15.08,8.74,6.07,4.97,20.11,3.14,26.03-1.83,5.91-3.6,11.42-3.53,11.98.07.57.67,2.46,2.42.72,1.75-1.74,6.97-15.06,7.7-24.59.72-9.53-5.95-22.46-23.35-19.91-17.4,2.56-45.05,23.74-63.86,51.98-10.54,15.83-23.42,44-12.98,52.34,10.68,8.53,24.2-5.59,26.74-9.05,0,0-1.96,7.01,3.91,6.88,7.24-.16,12.54-4.1,16.46-8.61,0,0-1.14,5.62,4.1,5.32,4.11-.24,7.84-3.33,7.84-3.33,0,0,.91,4.02,4.1,3.84,4.39-.24,7.4-2.83,7.4-2.83,0,0,2.43,2.15,6.29,1.78,3.85-.37,5.07-1.99,5.07-1.99,0,0,3.13,3.35,6.48,1.8,3.23-1.49,3.47-4.13,3.47-4.13,0,0,5.4.73,7.96-.53,0,0-1.88,4.88,2.2,5.65,3.4.64,7.32-2.19,7.32-2.19,0,0,2.56,2.64,5.21,2.3,3.49-.44,5.87-2.87,5.87-2.87,0,0-.99,4.76-.52,6.14.28.86,2.43,2.45,4.12.5,1.7-1.96.71-4.24,2.75-13.05,0,0,6.87-8.03,16.33-21.02,9.47-12.99,14.51-22.1,11.65-23.5-3.77-1.85-10.06,4.83-18.12,16.97-8.05,12.13-10.21,17.73-12.94,25.76,0,0-3.2,4.28-6.11,5.96-2.8,1.61-4.58,1.77-.79-4.19,0,0,1.55,1.76,3.1.47,0,0,4.57-5.54,1.61-7.56-2.96-2.03-3.72-.31-5.16,1.19-1.44,1.5-7.31,9.34-11.04,11.04-2.05.93-2.73.27-.86-4.8,0,0,8.4-3.81,14.79-12.86,6.05-8.57,9.18-17.03,4.4-15.78-4.99,1.3-11.65,9.61-15.33,14.65-5.88,8.08-7.11,12.81-7.11,12.81,0,0-3.54,2.36-8.26,2.25,0,0,4.31-3.38,2.89-5.5-1.41-2.13-8.15-2.56-12.3,4.1,0,0-3.83,3.25-5.83,4.5-2.01,1.24-4.17.61-2.11-1.84,2.07-2.45,5.19-5.23,3.81-8.46-1.38-3.23-4.36.68-5.49,2.31-1.12,1.63-5.26,7.45-8.14,8.97-2.88,1.51-2.16-1.38-1.5-3.72.65-2.33.94-2.39,1.8-3.4.87-1.01,1.88-4.8-.37-4.69-2.24.1-4.02,1.75-4.81,3.6-.78,1.86-4.27,6.18-7.07,7.8-2.8,1.61-2.87-1.65-1.24-3.59,1.63-1.94,4.53-2.8.73-6.05-1.24-1.06-1.49-5.63-4.91-.86-7.37,10.27-19.96,19.16-17.47,8.49M121.49,102.98c4.48-4.85,3.39-1.17-1.14,4.79-4.53,5.96-9.66,9.99-9.66,9.99,1.39-3.09,6.03-9.63,10.8-14.78M150.2,88.31c2.86-2.91.43,1.07-3.13,6.69-3.55,5.61-10.74,14.41-10.74,14.41,4.68-9.57,11.02-18.19,13.87-21.1" fill="#231f20" stroke-width="0"/>
          <path d="M282.29,128.17c-4.35,1.43-18.78,6.03-24.26,3.13-2.28-1.21,1.06-4.16,1.56-5.21.49-1.06,2.27-1.96-.23-4.3-2.51-2.35-1.37-7.14-5.95-1.55-2.98,3.63-9.12,9.4-16.48,8.7,0,0,6.02-1.97,9.11-6.15,3.78-5.13-9.91-8.81-14.76,5.28,0,0-9.61,4.23-5.45-1.03,0,0,5.58-4.72,1.53-5.01-4.06-.3-4.42,2.81-7.74,5.57-3.31,2.77-8.77,4.73-5.49-.66,2.6-4.29,1.28-4.49-.59-4.35-1.88.15-6.99,5.48-9.19,6.89-2.22,1.41-5.16,2.73-1-4.02,4.16-6.75-1.71-4.29-3.61-2.47-.96.92-9.49,6.29-13.36,7.51-3.86,1.2-1.95-.8-1.95-.8,0,0,11.05-6.1,37.13-28.25,0,0,32.56-2.59,52.08-19.57,19.51-16.98,17.14-48.31.21-55.92-16.93-7.61-38.74,2.22-69.56,32.9,0,0,3.03-6.7,0-6.14-3.05.56-3.39,2.37-8.88,10.46-.39.57-.84,1.19-1.29,1.81-1.02-16.54-7.44-34.04-21.46-47.1l2.65-3.01c.66-.75.59-1.89-.16-2.54-.75-.66-1.89-.59-2.54.16l-2.65,3.01C146.23-4.24,113.56-2.96,93.16,7.3c0,0,4.02-.16,11.92,10.51,6.13,8.28,6.04,14.93,6.04,14.93,0,0,7.17.57,15.96,10.22,5.29,5.82,6.79,10.38,7.14,13.1l-28.75,32.63c-.66.75-.59,1.89.15,2.55.76.66,1.89.58,2.55-.16l28.73-32.61c2.73,0,7.46.89,13.94,5.43,10.68,7.48,12.15,14.53,12.15,14.53,0,0,6.57-.93,15.56,4.12.42.24.79.46,1.18.69-1.7,2.21-3.45,4.51-5.25,6.98-4.67,6.43-8.44,11.44-8.44,11.44l-14.74.46s-2.52.81-1.36,2.07c1.15,1.25,6.2.93,8.43,1.01,2.22.08,5.4-.1,5.4-.1,0,0-2.92,4.11-7.5,11.37-4.58,7.25-8.54,13.83-8.54,13.83,0,0-2.37,2.69-.44,5.16,1.94,2.46,3.88-2.09,4.93-3.88,7.94-13.54,17.38-27.08,17.38-27.08l32.47-1.11s-17.9,19.03-20.51,23.74c0,0-2.57,2.85-5.44,1.95,0,0,4.97-2.74,7.72-10.04,2.73-7.29-6.85-3.99-11.15-1.25-6.78,4.34-11.11,10.1-11.84,13.17-.74,3.07.38,7.66,11.24.8,0,0,2.89,2.2,8.33.25,0,0,1.87,3.04,7.47,1.27,5.59-1.77,8.72-4.53,8.72-4.53,0,0-.83,3.77,1.63,5.03,3.33,1.69,10.08-3.44,10.08-3.44,0,0,1,4.02,4.72,3.9,4.67-.13,6.67-2.9,6.67-2.9,0,0,3.66,3.6,12.68-.33,0,0,5.53,6.61,20.96-4.36,0,0-2.64,11.09,15,8.22,18.77-3.06,18.26-8.12,13.91-6.69M221.02,97.53l-8.88,1.12c12.34-12.18,21.56-18.55,25.17-20.76,3.61-2.21,2.85-.49-.79,4.23-3.63,4.72-15.51,15.42-15.51,15.42M172.11,100.89s4.57-6.07,12.07-14.8c6.06,4.37,6.27,6.93,6.27,6.93,1.93-5.43,3.19-11.57,3.64-18.06,10.3-11.14,23.29-23.88,36.88-33.9,18.6-13.71,39.73-21.25,47.98-3.33,8.26,17.9,1.12,33.95-13.2,44.87-14.32,10.92-38.86,14.1-38.86,14.1,16.39-14.2,18.45-17.86,19.24-22.5.93-5.46-5.7-3.56-16.46,4.06-10.77,7.63-23.22,20.72-23.22,20.72-13.11.84-34.33,1.91-34.33,1.91M207.82,102.86s3.67-.3,7.42-.59c0,0-8.77,8.42-23.97,18.86,0,0,11.89-13.11,16.55-18.27M170.26,128.92c-5.3,3.54-3.61-2.38,3.56-7.52,7.84-5.61,3.71,1.56,3.71,1.56-1.4-2.26-7.27,5.96-7.27,5.96M240.39,121.92c1.17-.17,1.4.82.15,1.87-1.48,1.26-4.59,2.61-4.59,2.61.63-.62,1.89-4.09,4.44-4.48" fill="#231f20" stroke-width="0"/>
          <path d="M292.14,121.69c.92,0,1.78.23,2.58.7.8.46,1.43,1.09,1.89,1.89.47.8.7,1.66.7,2.57s-.23,1.78-.7,2.58c-.46.79-1.09,1.42-1.88,1.88-.8.46-1.66.69-2.58.69s-1.8-.23-2.59-.69c-.79-.46-1.42-1.09-1.88-1.88-.46-.79-.69-1.66-.69-2.58s.23-1.79.69-2.59c.46-.79,1.09-1.42,1.89-1.88.8-.46,1.66-.69,2.58-.69M292.14,122.55c-1.18,0-2.2.42-3.03,1.26-.84.85-1.26,1.86-1.26,3.04s.42,2.21,1.26,3.04c.84.84,1.85,1.26,3.04,1.26s2.19-.42,3.03-1.26c.84-.84,1.25-1.85,1.25-3.04s-.42-2.2-1.26-3.04c-.84-.84-1.85-1.26-3.03-1.26M290.98,129.62h-.89v-5.54h1.92c.68,0,1.16.05,1.44.16.28.11.5.29.67.53.17.25.25.52.25.81,0,.42-.15.78-.44,1.07-.3.29-.68.45-1.15.49.21.09.41.24.6.43.19.2.42.52.71.98l.67,1.07h-1.09l-.49-.87c-.35-.62-.63-1.02-.84-1.21-.21-.18-.49-.28-.82-.28h-.53v2.35ZM290.98,124.83v1.67h1.09c.47,0,.8-.06,1.01-.2.21-.13.32-.35.32-.64s-.1-.52-.31-.64c-.21-.13-.57-.19-1.09-.19h-1.02Z" fill="#231f20" stroke-width="0"/>
          <path d="M168.1,20.27c.43-.49-.3-4.25-4.08-5.29.93-.12.62-.71.38-1.02-29.67-20.23-65.4-6.42-65.4-6.42,14.26,11.65,14.6,22.88,14.6,22.88,22,8.59,23.46,25.16,23.46,25.16l31.2-35.4c-.06.03-.13.06-.16.09" fill="#e1221c" stroke-width="0"/>
          <path d="M168.1,20.27c.43-.49-.3-4.25-4.08-5.29.06,0,.09-.03.13-.04-14.6-3.82-31.55-.42-50.55,15.48,22,8.59,23.46,25.16,23.46,25.16l31.2-35.4c-.06.03-.13.06-.16.09" fill="#fedd00" stroke-width="0"/>
          <path d="M174,22.26c-.28-.2-.37,0-.27.95-2.09-3.53-5.2-3.44-5.63-2.94.03-.03.04-.11.05-.16l-31.18,35.4s16.63-.64,27.91,20.11c0,0,11.19-1.09,24.56,11.6,0,0,9.38-38.01-15.44-64.95" fill="#009845" stroke-width="0"/>
          <path d="M173.72,23.16s0,.03,0,.05c-2.09-3.53-5.19-3.44-5.63-2.95.03-.03.03-.11.05-.16l-31.18,35.4s16.63-.64,27.91,20.11c13.49-21.04,14.63-38.39,8.84-52.46" fill="#fff" stroke-width="0"/>
        </g>
      </g>
    </g>
  </g>
</svg>