<?xml version="1.0" encoding="UTF-8"?> <svg xmlns="http://www.w3.org/2000/svg" width="166.303" height="auto" viewBox="0 0 166.303 118.473"><g id="Group_1431" data-name="Group 1431" transform="translate(0 0)"><path id="Path_4228" data-name="Path 4228" d="M103.9,10.267l1.524-1.731a1.035,1.035,0,0,0-1.552-1.368L102.353,8.9C88.747-2.43,70-1.7,58.29,4.189c0,0,2.311-.094,6.842,6.028,3.525,4.756,3.469,8.566,3.469,8.566s4.121.322,9.155,5.866c3.04,3.337,3.894,5.958,4.1,7.518L65.36,50.889a1.035,1.035,0,1,0,1.553,1.37L83.4,33.545c1.561,0,4.282.513,7.993,3.122C97.527,40.958,98.368,45,98.368,45s3.772-.528,8.929,2.363c6.646,3.727,6.826,6.009,6.826,6.009,4.386-12.34,2.749-31.038-10.219-43.11M70.015,17.455S69.827,11,61.639,4.324c0,0,21.672-8.377,38.947,4.7l.013,0a.933.933,0,0,1,.08.064c.45.337.892.707,1.333,1.079h-.006c-.435-.372-.876-.739-1.327-1.079-.03-.024-.062-.045-.093-.068C91.865,6.165,81.6,7.762,70.015,17.455M99.451,43.4C92.972,31.482,83.435,31.848,83.435,31.848l18.882-21.433c.571.515,1.115,1.039,1.636,1.569,3.95,8.3,3.658,18.68-4.5,31.412" transform="translate(-4.625 0)" fill="#fff"></path><path id="Path_4229" data-name="Path 4229" d="M49.625,77.691a2.3,2.3,0,0,1,.425-1.93c.432-.678,1.35-1.511,1.171-.855a1.541,1.541,0,0,0,.086,1.1c-.362,1.414-1.49,2.277-1.682,1.68M19.262,76.8a13.113,13.113,0,0,1,1.955-4.566s12.869-15.6,14.66-18.725c0,0,3.121-4.668,1.208-4.8A5.406,5.406,0,0,0,32.9,50.258c-.618.706-9.557,11.551-13.933,21.044,0,0-5.038,7.7-10.584,10.343S.427,76.826,5.831,65.185s10.4-19.111,21.226-28.877S47.08,24.315,51.949,27.689s2.828,11.256,1.836,14.576S51.83,48.684,51.873,49s.385,1.371,1.344.391,3.808-8.472,4.172-13.815S54.015,23,44.385,24.5,19.5,37.972,9.183,53.881C3.4,62.8-3.635,78.64,2.177,83.271c5.95,4.749,13.388-3.221,14.78-5.171,0,0-1.058,3.938,2.191,3.846,4.015-.117,6.937-2.344,9.093-4.888,0,0-.611,3.154,2.29,2.967a8.652,8.652,0,0,0,4.329-1.895s.521,2.245,2.286,2.137a7.4,7.4,0,0,0,4.086-1.615,4.816,4.816,0,0,0,3.493.977,3.97,3.97,0,0,0,2.805-1.138s1.746,1.866,3.6.985a3.114,3.114,0,0,0,1.909-2.329s2.991.391,4.408-.323c0,0-1.029,2.74,1.245,3.159,1.883.345,4.049-1.251,4.049-1.251S64.163,80.2,65.627,80a6.052,6.052,0,0,0,3.246-1.632,12.2,12.2,0,0,0-.273,3.448,1.358,1.358,0,0,0,2.287.264c.935-1.108.382-2.378,1.478-7.331,0,0,3.775-4.525,8.97-11.841S89.3,50.46,87.71,49.685c-2.1-1.025-5.557,2.744-9.977,9.578s-5.6,9.975-7.08,14.494a15.119,15.119,0,0,1-3.365,3.365c-1.542.911-2.531,1.008-.456-2.345,0,0,.865.98,1.723.249,0,0,2.511-3.122.858-4.246s-2.063-.164-2.855.686-4.009,5.265-6.073,6.223c-1.135.534-1.513.168-.493-2.685a22.8,22.8,0,0,0,8.15-7.263c3.318-4.825,5.028-9.582,2.379-8.864-2.76.751-6.422,5.432-8.442,8.271-3.228,4.552-3.894,7.2-3.894,7.2a8.618,8.618,0,0,1-4.568,1.3s2.372-1.915,1.581-3.1-4.524-1.4-6.8,2.345a40.82,40.82,0,0,1-3.216,2.544c-1.109.7-2.307.358-1.176-1.019s2.856-2.955,2.079-4.76-2.41.4-3.029,1.32-2.889,4.193-4.477,5.051-1.2-.763-.849-2.074a3.4,3.4,0,0,1,.986-1.917c.48-.569,1.024-2.695-.219-2.624a3.148,3.148,0,0,0-2.65,2.034,12.473,12.473,0,0,1-3.887,4.4c-1.542.913-1.6-.914-.7-2.011s2.5-1.588.382-3.393c-.69-.588-.847-3.156-2.724-.469C24.868,77.76,17.926,82.793,19.262,76.8M67.231,63.887c2.467-2.735,1.878-.667-.612,2.69A33.8,33.8,0,0,1,61.3,72.212a40.9,40.9,0,0,1,5.926-8.325M83.09,55.558c1.572-1.642.239.6-1.712,3.761s-5.9,8.117-5.9,8.117A54.028,54.028,0,0,1,83.09,55.558" transform="translate(0 -1.928)" fill="#fff"></path><path id="Path_4230" data-name="Path 4230" d="M116.825,42.192c2.985-4.452,3.174-5.445,4.828-5.754s0,3.376,0,3.376c16.75-16.873,28.608-22.278,37.806-18.093s10.488,21.414-.118,30.752-28.3,10.768-28.3,10.768c-14.175,12.175-20.181,15.534-20.181,15.534s-1.039,1.1,1.062.435a35.781,35.781,0,0,0,7.256-4.125c1.029-1,4.219-2.351,1.959,1.359s-.656,2.99.547,2.216,3.975-3.707,4.995-3.787,1.743.032.323,2.392c-1.782,2.96,1.189,1.879,2.986.361s2-3.232,4.206-3.067-.835,2.759-.835,2.759c-2.265,2.895,2.964.567,2.964.567,2.64-7.756,10.076-5.727,8.023-2.911a11.329,11.329,0,0,1-4.949,3.385c4,.387,7.334-2.786,8.954-4.786,2.489-3.071,1.866-.441,3.234.856s.393,1.78.12,2.363-2.079,2.194-.842,2.861c2.979,1.6,10.819-.931,13.187-1.719s2.637,2-7.565,3.679c-9.583,1.584-8.151-4.521-8.151-4.521-8.4,6.035-11.393,2.4-11.393,2.4-4.9,2.162-6.892.185-6.892.185a4.648,4.648,0,0,1-3.622,1.6c-2.03.062-2.573-2.152-2.573-2.152s-3.672,2.823-5.481,1.885c-1.341-.692-.886-2.762-.886-2.762a14.148,14.148,0,0,1-4.736,2.491c-3.041.97-4.06-.7-4.06-.7-2.954,1.069-4.529-.144-4.529-.144-5.9,3.781-6.514,1.253-6.109-.434s2.746-4.856,6.444-7.241c2.334-1.514,7.534-3.326,6.051.686a10.729,10.729,0,0,1-4.19,5.518c1.556.5,2.954-1.072,2.954-1.072,1.422-2.587,11.15-13.057,11.15-13.057l-17.649.617s-5.129,7.444-9.45,14.9c-.567.976-1.624,3.483-2.673,2.13a2.334,2.334,0,0,1,.231-2.838s2.151-3.62,4.641-7.611,4.077-6.251,4.077-6.251-1.727.1-2.933.056-3.958.125-4.579-.561.738-1.139.738-1.139l8.008-.253s2.051-2.751,4.588-6.286c4.722-6.58,9.046-11.416,11.364-14.87m-12.663,20.74s11.534-.586,18.659-1.05a107.037,107.037,0,0,1,12.615-11.394c5.853-4.194,9.461-5.239,8.955-2.234-.433,2.548-1.551,4.562-10.461,12.371,0,0,13.337-1.75,21.125-7.757s11.661-14.827,7.174-24.675-15.971-5.705-26.079,1.834c-16.844,12.568-31.987,32.905-31.987,32.905m26.581-1.85S137.2,55.2,139.175,52.6s2.393-3.54.43-2.325A82.671,82.671,0,0,0,125.924,61.7ZM114.579,74.067A112.66,112.66,0,0,0,127.6,63.689c-2.037.158-4.026.328-4.026.328-2.536,2.835-9,10.051-9,10.051m-7.467,1s2.238-3.941-2.018-.857c-3.9,2.825-4.815,6.083-1.934,4.135,0,0,3.192-4.52,3.952-3.278m31.747,1.895a12.939,12.939,0,0,0,2.491-1.434c.678-.577.559-1.13-.08-1.028-1.387.212-2.07,2.124-2.411,2.463" transform="translate(-7.163 -1.616)" fill="#fff"></path><path id="Path_4231" data-name="Path 4231" d="M177.13,78.174a2.873,2.873,0,0,1,1.494.4,3.045,3.045,0,0,1,1.093,1.1,3.026,3.026,0,0,1-1.086,4.117,2.947,2.947,0,0,1-1.5.405,3,3,0,0,1-2.983-3.011,2.968,2.968,0,0,1,.4-1.511,2.9,2.9,0,0,1,1.1-1.108,2.872,2.872,0,0,1,1.484-.4m0,.5a2.4,2.4,0,0,0-1.752.73,2.487,2.487,0,0,0-.728,1.787,2.451,2.451,0,0,0,.728,1.777,2.454,2.454,0,0,0,3.5,0,2.442,2.442,0,0,0,.729-1.774,2.473,2.473,0,0,0-.729-1.787,2.386,2.386,0,0,0-1.753-.73m-.663,4.129h-.522V79.567h1.11a2.692,2.692,0,0,1,.83.091.84.84,0,0,1,.392.319.792.792,0,0,1,.148.467.876.876,0,0,1-.261.63,1.048,1.048,0,0,1-.666.29.928.928,0,0,1,.349.254,3.21,3.21,0,0,1,.408.56l.392.629h-.634l-.28-.5a2.847,2.847,0,0,0-.493-.705.673.673,0,0,0-.472-.162h-.3Zm0-2.8v.981h.622a1.088,1.088,0,0,0,.586-.119.417.417,0,0,0,.194-.375.407.407,0,0,0-.187-.377,1.266,1.266,0,0,0-.629-.11Z" transform="translate(-13.817 -6.203)" fill="#fff"></path><path id="Path_4233" data-name="Path 4233" d="M65.452,125.6a29.324,29.324,0,0,1-7.291.958c-8.179,0-13.623-5-13.623-12.357s5.444-12.356,13.623-12.356c3.082,0,6.333,1.228,7.019,1.228.135,0,.308-.136.478-.168l.378,3.661h-.618c-1.2-2.635-4.689-3.629-7.258-3.629-6.126,0-10.37,4.04-10.37,11.264,0,5.167,4.654,11.263,10.37,11.263,4.075,0,6.4-1.03,8.045-3.563l.447.241Z" transform="translate(-3.534 -8.08)" fill="#fff"></path><path id="Path_4234" data-name="Path 4234" d="M92.264,104.957c0-1.063-.342-2.056-1.711-2.056v-.616c1.061,0,2.086.137,3.113.137,1.166,0,2.192-.137,3.046-.137v.616c-1.163,0-1.5.992-1.5,2.056L95.1,123.506a1.824,1.824,0,0,0,1.99,2.053v.619c-.858,0-1.712-.137-2.568-.137s-1.712.137-2.57.137v-.241a1.264,1.264,0,0,0,.343-.922v-1.678c-2.362,1.607-4.963,3.252-8.181,3.252-5.065,0-8.557-3.22-8.557-8.763l-.1-12.869c0-1.063-.479-2.056-1.78-2.056v-.616c1.1,0,2.12.137,3.185.137,1.16,0,2.19-.137,3.183-.137v.616c-1.3,0-1.642.992-1.642,2.056l-.1,12.732c0,5.411,3.765,7.119,6.5,7.119,2.671,0,6.232-1.095,7.568-3.251Z" transform="translate(-5.846 -8.116)" fill="#fff"></path><path id="Path_4235" data-name="Path 4235" d="M106.947,104.957c0-1.063-.444-2.056-1.675-2.056v-.616c1.3,0,2.6.137,3.9.137s2.6-.137,3.9-.137c3.631,0,7.672,1.848,7.672,6.883,0,4.345-3.938,6.74-7.841,6.74-1.162,0-2.19-.137-3.15-.2l-.066,7.8c0,1.062.444,2.052,1.607,2.052v.619c-.854,0-1.883-.136-3.046-.136-1.027,0-2.054.136-2.907.136v-.619c1.162,0,1.606-.991,1.606-2.052Zm2.807,8.8c0,.715.2,1.331,2.74,1.331,4.037,0,5.272-2.737,5.272-5.989,0-3.046-1.129-5.921-5.683-5.921-1.781,0-2.191.2-2.191,1.712,0,.716-.137,2.292-.137,4.346Z" transform="translate(-8.353 -8.116)" fill="#fff"></path></g></svg> 