<?xml version="1.0" encoding="UTF-8"?> <svg xmlns="http://www.w3.org/2000/svg" id="b" data-name="Layer 2" viewBox="0 0 548.86 84.05"><g id="c" data-name="Layer 1"><g><path d="m25.45,84.05c-17.38,0-25.45-9.06-25.45-27.31v-29.42C0,9.06,8.07,0,25.45,0h75.49v13.78H28.56c-9.31,0-13.53,4.97-13.53,15.02v26.44c0,9.93,4.22,15.02,13.53,15.02h72.38v13.78H25.45Z" fill="#231f20" stroke-width="0"></path><path d="m136.43,84.05c-17.13,0-25.2-9.06-25.2-27.31V0h15.02v55.25c0,9.93,4.22,15.02,13.28,15.02h62.7v13.78h-65.8Z" fill="#231f20" stroke-width="0"></path><path d="m234.15,84.05c-17.01,0-25.2-9.19-25.2-27.31V0h15.15v55.25c0,9.93,4.35,15.02,13.28,15.02h62.2V0h14.77v84.05h-80.2Z" fill="#231f20" stroke-width="0"></path><path d="m326.14,84.05V0h88.65c14.03,0,19.12,6.7,19.12,18.99v4.97c0,14.28-7.82,16.64-12.91,17.13,5.59.5,14.15,3.1,14.15,16.51v7.45c0,12.29-5.09,19-19.12,19h-89.89Zm92.87-61.58c0-6.46-2.61-9.93-9.56-9.93h-68.28v22.72h67.04c6.46,0,10.8-2.36,10.8-9.81v-2.98Zm1.24,34.02c0-6.95-4.72-9.56-11.3-9.56h-67.79v24.58h69.53c6.95,0,9.56-3.48,9.56-10.06v-4.97Z" fill="#231f20" stroke-width="0"></path><path d="m464.18,84.05c-14.03,0-19.12-6.7-19.12-19v-7.08c0-13.41,8.44-16.14,14.15-16.64-5.09-.5-12.91-2.73-12.91-17.01v-5.34c0-12.29,5.09-18.99,19.12-18.99h63.07c14.03,0,19.12,6.7,19.12,18.99v5.34c0,14.28-7.82,16.51-12.91,17.01,5.71.5,14.15,3.23,14.15,16.64v7.08c0,12.29-5.09,19-19.12,19h-65.55Zm7.08-36.87c-6.7,0-11.3,2.61-11.3,9.68v4.59c0,6.58,2.61,10.06,9.56,10.06h54.88c6.95,0,9.56-3.48,9.56-10.06v-4.59c0-7.08-4.59-9.68-11.3-9.68h-51.4Zm-.5-34.64c-6.95,0-9.56,3.48-9.56,9.93v3.23c0,7.45,4.35,9.93,10.8,9.93h49.91c6.46,0,10.8-2.48,10.8-9.93v-3.23c0-6.46-2.61-9.93-9.56-9.93h-52.39Z" fill="#8bc53f" stroke-width="0"></path></g></g></svg> 