<?xml version="1.0" encoding="UTF-8"?> <svg xmlns="http://www.w3.org/2000/svg" width="459" viewBox="0 0 223.09 39.26"><g><g><path d="m23.44,35.97c2.5-14.92,7.06-24.55,10.54-28.65.94.14,1.61-.48,1.61-1.39,0-1.04-1.13-2.31-2.44-2.31-2.24,0-4.76,5.04-6.06,8.04-1.58,3.65-3.83,9.93-5.79,19.48-.33-2.46-.59-4.85-.84-7.18-.37-3.43-.73-6.68-1.25-9.76C17.74,5.68,15.46,0,9.08,0c-1.87,0-3.96.84-5.88,2.37C.39,4.39-.58,6.07.33,7.37c.35.51,1.1.83,1.96.83.5,0,.97-.11,1.36-.32.85-.45.85-1.15.86-1.66,0-.51,0-.88.62-1.32l.19-.16c1.33-1.1,2.65-1.71,3.72-1.71,5.97,0,7.14,10.38,9.48,31.07l.28,2.49c-.03.18-.03.34-.03.46,0,1.26.9,2.04,2.35,2.04,2,0,2.72-1.05,2.72-1.95,0-.22-.08-.39-.17-.59-.07-.15-.15-.33-.22-.58Z" fill="#fff"></path><path d="m31.12,14.7c0,1.29,1.17,2.31,2.67,2.31s2.63-.95,2.63-2.22c0-1.44-1.1-2.44-2.67-2.44s-2.63.99-2.63,2.35Z" fill="#fff"></path><path d="m34.22,35.19c-.28,0-.52.06-.71.11-.02,0-.05.01-.08.02-.16-.21-.35-1.14-.35-4.19,0-5.08.75-7.7,1.03-8.69.09-.33.14-.49.14-.67,0-1.02-.64-1.63-1.72-1.63-2.29,0-2.76,3.06-2.76,7.65,0,6.6.6,10.99,3.53,10.99,1.27,0,2.35-1.17,2.35-2.13,0-.79-.66-1.45-1.45-1.45Z" fill="#fff"></path><path d="m45.91,27.28h0c-.31-.13-.62-.25-.91-.37-3.16-1.25-4.9-1.94-4.9-4.4,0-2.05,1.65-3.66,3.75-3.66,1.82,0,2.82.86,3.33,2.87.17.65.24,1.2.29,1.65.1.88.24,2.09,1.68,2.09.25,0,1.49-.09,1.49-1.9v-3.48c0-.05,0-.12.02-.21v-.05c.25-.28.53-.69.53-1.28,0-.73-.71-1.54-1.72-1.54-.49,0-.82.19-1.07.43-1.39-1.08-2.84-1.6-4.45-1.6-3.85,0-7.1,3.09-7.1,6.74,0,4.13,2.86,5.26,7.19,6.98l.86.34c3.03,1.19,4.26,1.82,4.26,3.22,0,1.7-2.33,2.85-5.79,2.85-1.12,0-2-.2-2.68-.62l-.34-.46c-.98-1.34-1.63-2.23-2.73-2.23-.81,0-1.67.73-1.67,1.9,0,2.03,3.07,4.21,7.65,4.21,5.33,0,8.91-2.24,8.91-5.57,0-2.97-2.73-4.33-6.59-5.92Z" fill="#fff"></path><path d="m55.82,17.04c1.5,0,2.62-.95,2.62-2.22,0-1.44-1.1-2.44-2.67-2.44s-2.63.99-2.63,2.35c0,1.29,1.17,2.31,2.67,2.31Z" fill="#fff"></path><path d="m57.4,35.18c-.27,0-.52.06-.71.11-.02,0-.05.01-.07.02-.16-.22-.35-1.14-.35-4.19,0-5.09.75-7.7,1.03-8.69.09-.33.14-.49.14-.67,0-1.02-.64-1.63-1.72-1.63-2.29,0-2.76,3.06-2.76,7.65,0,6.6.6,10.99,3.53,10.99,1.27,0,2.35-1.17,2.35-2.13,0-.79-.66-1.45-1.45-1.45Z" fill="#fff"></path><path d="m68.35,35.24c-.52,0-.85.3-1.02.45-.14.13-.15.13-.24.13-.93,0-1.58-1.9-1.58-4.61,0-1.41.18-4.21.67-7.87h2.09c1.68,0,1.76-1.13,1.76-1.36,0-1.51-1.81-1.65-3.4-1.7.2-1.8.4-3.19.54-4.16.12-.84.19-1.3.19-1.56,0-.47,0-1.59-1.4-1.59-2.17,0-2.31,1.76-2.57,5-.06.72-.12,1.52-.21,2.43-.54,0-1.02,0-1.43,0-2.35,0-3.89,0-3.89,1.7,0,1.59,1.81,1.59,2.4,1.59.77,0,1.74-.07,2.58-.15-.47,4.87-.55,7.19-.55,8.15,0,4.45,1.64,7.1,4.39,7.1,1.57,0,2.94-1.12,2.94-2.4,0-.72-.5-1.18-1.27-1.18Z" fill="#fff"></path></g><g><path d="m102.92,22.92c0,9.11-6.45,16.32-15.29,16.32s-15.33-7.21-15.33-16.32,6.45-16.28,15.33-16.28,15.29,7.21,15.29,16.28Zm-6,0c0-5.82-4.15-10.64-9.29-10.64s-9.33,4.82-9.33,10.64,4.15,10.69,9.33,10.69,9.29-4.82,9.29-10.69Z" fill="#fff"></path><path d="m116.5,20.62c-3.79-.68-6.31,1.35-6.31,4.64v13.44h-5.95v-13.44c0-6.58,4.55-11.18,12.26-10.24v5.59Z" fill="#fff"></path><rect x="118.03" y="5.56" width="5.95" height="33.13" fill="#fff"></rect><path d="m149.05,38.7h-5.64v-2.43c-1.76,1.94-4.28,2.93-7.08,2.93-6.13,0-11.14-5.41-11.14-12.08s4.91-12.22,11.95-12.22,11.9,5.5,11.9,12.22v11.59Zm-11.9-18.22c-3.29,0-5.95,2.84-5.95,6.67s2.66,6.54,5.95,6.54,5.95-2.93,5.95-6.54-2.66-6.67-5.95-6.67Z" fill="#fff"></path><path d="m161.24,14.89c6.49,0,10.33,4.28,10.33,10.37v13.44h-5.95v-13.57c0-1.31-.45-4.42-4.37-4.42-2.62,0-4.51,1.8-4.51,4.42v13.57h-5.95v-13.44c0-5.91,4.15-10.37,10.46-10.37Z" fill="#fff"></path><path d="m196.6,27.11c0,6.72-4.91,12.13-11.9,12.13s-11.95-5.41-11.95-12.13,5-12.13,11.09-12.13c2.75,0,5.01.86,6.81,2.71V5.15h5.95v21.96Zm-11.9-6.63c-3.29,0-5.95,2.84-5.95,6.67s2.66,6.54,5.95,6.54,5.95-2.93,5.95-6.54-2.66-6.67-5.95-6.67Z" fill="#fff"></path><g><path d="m220.91,27.12c0,6.95-5.28,12.14-11.73,12.14s-11.69-5.19-11.69-12.14,5.23-12.23,11.69-12.23,11.73,5.28,11.73,12.23Zm-6,.05c0-4.02-2.57-6.81-5.73-6.81s-5.73,2.8-5.73,6.81,2.57,6.63,5.73,6.63,5.73-2.71,5.73-6.63Z" fill="#fff"></path><path d="m221.5,39.22c-.88,0-1.59-.71-1.59-1.59s.71-1.58,1.59-1.58,1.59.71,1.59,1.58-.71,1.59-1.59,1.59Zm0-2.87c-.7,0-1.27.58-1.27,1.29s.57,1.29,1.27,1.29,1.27-.58,1.27-1.29-.57-1.29-1.27-1.29Zm.8,2.12h-.38l-.32-.61h-.42v.6h-.33v-1.74h.84c.37,0,.6.22.6.57,0,.25-.14.45-.36.53l.37.65Zm-.6-.91c.14,0,.27-.07.27-.27s-.11-.27-.27-.27h-.51v.53h.51Z" fill="#fff"></path></g></g></g></svg> 