<?xml version="1.0" encoding="UTF-8"?> <svg xmlns="http://www.w3.org/2000/svg" width="264.86" viewBox="0 0 264.86 201.78"><g><g><path d="m35.96,71.3c0,12.15-6,18.24-18,18.27-11.97,0-17.96-6.09-17.96-18.27V18.22C0,6.08,5.99,0,17.96,0s18,6.08,18,18.22v53.08Zm-12.52-53.08c0-3.89-1.81-5.85-5.44-5.88h-.09c-3.6,0-5.4,1.96-5.4,5.88v53.08c0,3.92,1.81,5.88,5.44,5.88s5.48-1.96,5.48-5.88V18.22Z" fill="currentColor" stroke-width="0"></path><path d="m46.58,1.37h18.22c11.12.03,16.68,6.12,16.68,18.27v13.05c0,7.64-3.29,12.67-9.86,15.08l14.07,40.38h-13.71l-11.28-38.17-1.59.22v37.95h-12.52V1.37Zm12.52,12.34v24.86h2.88c1.74,0,2.93-.12,3.58-.35,2.27-.91,3.41-2.76,3.41-5.53v-13.05c0-3.95-1.81-5.93-5.44-5.93h-4.42Z" fill="currentColor" stroke-width="0"></path><path d="m128.65,57.37l4.07,30.78h-12.65l-2.43-18.4h-12.78l-2.48,18.4h-12.61l4.07-30.65L102.69,1.37h17.16l8.8,56Zm-12.65,0l-4.78-36.09-4.78,36.09h9.55Z" fill="currentColor" stroke-width="0"></path><path d="m140.24,1.37h12.52l11.85,50.33V1.37h11.59v86.78h-12.52l-11.41-48.74v48.74h-12.03V1.37Z" fill="currentColor" stroke-width="0"></path><path d="m221.78,71.3c0,12.15-6,18.24-18,18.27-11.97,0-17.96-6.09-17.96-18.27V18.22c0-12.15,5.99-18.22,17.96-18.22s18,6.08,18,18.22v11.68h-12.52v-11.68c0-3.89-1.81-5.85-5.44-5.88h-.09c-3.6,0-5.4,1.96-5.4,5.88v53.08c0,3.92,1.81,5.88,5.44,5.88s5.48-1.96,5.48-5.88v-20.35h-5.44v-12.39h17.96v32.73Z" fill="currentColor" stroke-width="0"></path><path d="m232.39,1.37h32.47v12.34h-19.95v24.86h17.16v12.39h-17.16v24.86h19.95v12.34h-32.47V1.37Z" fill="currentColor" stroke-width="0"></path></g><path d="m43.81,179.53c0,14.8-7.31,22.22-21.93,22.26-14.59,0-21.88-7.42-21.88-22.26v-64.66c0-14.8,7.29-22.2,21.88-22.2s21.93,7.4,21.93,22.2v14.23h-15.25v-14.23c0-4.74-2.21-7.13-6.63-7.17h-.11c-4.38,0-6.57,2.39-6.57,7.17v64.66c0,4.78,2.21,7.17,6.63,7.17s6.68-2.39,6.68-7.17v-24.79h-6.63v-15.09h21.88v39.88Z" fill="currentColor" stroke-width="0"></path><path d="m56.74,94.33h22.2c13.54.04,20.32,7.45,20.32,22.25v15.9c0,9.31-4.01,15.43-12.02,18.38l17.14,49.2h-16.71l-13.74-46.51-1.94.27v46.24h-15.25v-105.73Zm15.25,15.03v30.28h3.5c2.12,0,3.57-.14,4.36-.43,2.77-1.11,4.15-3.36,4.15-6.74v-15.9c0-4.81-2.21-7.22-6.63-7.22h-5.39Z" fill="currentColor" stroke-width="0"></path><path d="m155.4,179.44c0,14.8-7.31,22.22-21.93,22.26-14.59,0-21.88-7.42-21.88-22.26v-64.66c0-14.8,7.29-22.2,21.88-22.2s21.93,7.4,21.93,22.2v64.66Zm-15.25-64.66c0-4.74-2.21-7.13-6.63-7.17h-.11c-4.38,0-6.57,2.39-6.57,7.17v64.66c0,4.78,2.21,7.17,6.63,7.17s6.68-2.39,6.68-7.17v-64.66Z" fill="currentColor" stroke-width="0"></path><path d="m200.46,200.06h-20.91l-10.78-68.33-4.96-37.4h15.41l10.72,81.48,10.78-81.48h15.41l-4.96,37.51-10.72,68.22Z" fill="currentColor" stroke-width="0"></path><path d="m225.31,94.33h39.55v15.03h-24.3v30.28h20.91v15.09h-20.91v30.28h24.3v15.03h-39.55v-105.73Z" fill="currentColor" stroke-width="0"></path></g></svg> 