<?xml version="1.0" encoding="UTF-8"?> <svg xmlns="http://www.w3.org/2000/svg" id="b" data-name="Layer 2" width="368" viewBox="0 0 367.35 149.04"><g id="c" data-name="Layer 1"><g><path d="m230.38,63.42c0-1.7,1.38-3.08,3.08-3.08s3.08,1.38,3.08,3.08-1.38,3.08-3.08,3.08-3.08-1.38-3.08-3.08h0Zm37.84,16.28c3.94,0,5.47-1.54,5.47-3.11,0-2.03-2.44-3.01-5.46-2.98-3.1.03-5.29,1.18-5.29,3,0,1.5,1.36,3.09,5.29,3.09h0Zm-133.55-9.8c1.79,0,3.24-1.45,3.24-3.24s-1.45-3.25-3.24-3.25-3.25,1.45-3.25,3.25,1.45,3.24,3.25,3.24h0Zm117.16,24.71h-.16c-3.21.05-6.35-1.5-8.66-4.34-3.25,2.05-6.39,3.05-8.64,2.7-4.88-.74-6.34-4.59-6.76-7.1-2.8,3.3-6.52,4.88-10.1,5.2,1.28,2.49,1.92,5.48,1.92,8.24,0,4.29-2.5,8.68-7.02,8.68-6.31,0-10.09-8.86-10.59-17.49-1.08.4-2.86.71-3.69-1.01-1-2.07,1.48-3.99,3.57-5.17.37-17.2,7.9-29.36,16.04-29.36,2.74,0,6.03,1.66,6.03,6.66s-3.11,11.94-8.12,17.93c-.68.81-2.27,2.4-4.03,4.03,7.12,5.03,11.43-.39,13.21-3.72.42-.89.78-1.77,1.05-2.55,1.01-2.87.72-2.2,1.67-5.04,1.35-4.05,3.55-3.88,4.55-3.72,3.54.59,1.42,4.51.56,7.96l-.04.08c-1.34,5.88-.72,10.55,2.96,11.27,1.17.18,3.2-.51,5.27-1.98-4.84-12.54,2.56-27.38,10.22-28.81,2.55-.48,5.91.46,6.75,4.98.89,4.74-.88,11.35-4.55,17.64-.83,1.42-3.22,4.64-6.05,7.07.02.02.03.05.03.05,2.15,2.81,4.86,2.74,4.86,2.74,4.02-.02,5.23-3.1,5.73-4.38.57-1.46,1.74-1.94,2.97-1.55,1.34.43,1.43,1.8,1.18,2.8-.53,2.06-3.24,8.01-10.16,8.17h0Zm-44.49-13.67c6.49-6.09,11.54-14.77,11.51-19.42,0-.89-.21-1.68-1.1-1.68-2.03,0-8.64,6.41-10.4,21.1h0Zm5.01,9.63c-2.25-.68-4.11-1.89-5.21-3.18-.08.06-.16.11-.24.17-.01.1-.04.2-.06.3-.06,7.9,2.79,15.2,5.95,14.85,3.33-.56,1.76-7.33-.44-12.14h0Zm32.91-8.19c5.71-6.28,8.63-15.7,7.95-19.57-.15-.81-.47-1.43-1.31-1.33-2.67.32-8.88,11.71-6.64,20.9h0ZM104.14,26.94c2.92,3.93,11.29,2.65,17.67-2.09,6.38-4.74,7.96-10.87,5.04-14.79-2.92-3.92-9.23-4.17-15.61.58-6.38,4.74-10.02,12.38-7.1,16.31h0Zm201.75,71.13c-4.3-.22-8.77-3.37-12.73-7.86-7.01,1.59-14.2,1.91-19.21,1.88-4.16,4.26-8.13,7.81-10.97,9.83,0,0-3.84,2.88-5.7.43-1.09-1.64-.53-3.42,2.46-5.3,1.87-1.18,4.21-3.08,6.75-5.43-4.29-1.17-3.23-5.61.96-5.1.3.04,1.7.23,3.83.39,4.16-4.32,8.38-9.29,11.64-13.84-1.54-4-2.43-7.79-2.43-10.76,0-3.9,2.24-8.32,6.79-8.32s6.66,3.66,6.66,7.44c0,3.21-1.97,7.57-4.97,12.27,1.72,3.66,3.95,7.46,6.45,10.72,2.7-.88,5.36-2.03,7.85-3.52,3.37-2.01,6.26,1.86,2.73,4.34-2.13,1.33-4.48,2.41-6.95,3.29,2.6,2.5,5.33,4.18,7.96,4.4,4.5.39,4.68,5.61-1.11,5.15h0Zm-19.38-30.58c1.31-2.35,2.13-4.4,2.25-5.92.12-.9-.05-2.46-1.4-2.46-2.35,0-2.35,3.57-.85,8.39h0Zm3.25,18.4c-1.59-2.26-3.04-4.69-4.3-7.15-2.11,2.82-4.45,5.65-6.85,8.35,3.36-.08,7.2-.41,11.15-1.2h0Zm-91.01-9.3c0-2.04-2.45-3.02-5.48-2.99-3.11.03-5.32,1.18-5.32,3.01,0,1.5,1.36,3.11,5.31,3.11s5.49-1.55,5.49-3.13h0Zm-102.67-36.13c.02-.75-.03-2.45-1.93-2.45-2.36.07-4.9,4.24-3.89,6.54,1.86,2.99,5.75-.9,5.82-4.09h0Zm94.33,48.49c0,2.13-3.16,9.11-10.47,9.11s-10.58-7.51-10.58-7.51c-.73,7.6-2.42,9.15-4.75,8.89-1.41-.16-2.08-1.16-2.08-2.58,0-.53.45-3.75.82-6.15-3.19,3.05-7.43,5.32-12.43,5.09-2.47-.11-5.76-1.34-8.01-4.14-1.65,2.24-4.27,4.26-7.04,4.26-2.37,0-5.33-1.56-7.07-5.9l-.07.05c-2.01,4.24-5.44,7.08-9.39,7.08-1.68,0-5.31-1.18-5.48-5.62-.24-6.19,1.68-8.37-.73-8.88-1.75-.31-6.06.94-6.52,9.57-.03.99-.03,2.01,0,3.05.05,1.81-.5,3.32-2.59,3.38-2.19.07-2.9-1.64-2.96-3.63,0-.81-.01-1.88,0-3.08-7,5.38-14.99,8.39-22.63,7.9-16-1.13-22.85-15.96-22.3-30.13.93-23.69,19.1-46.31,36.4-44.45,8.9.95,13.6,7.9,13,18.67-.93,16.62-12.01,32.45-23.36,31.82-3.84-.22-10.31-3.27-9.64-13.06.55-8.02,5.1-13.65,7.38-14.38,1.33-.42,3.14.35,2.99,2.12-.25,2.99-4.02,5.02-4.64,12.42-.29,3.41.89,7.27,4.68,7.49,8.19.46,15.96-15.2,16.56-25.93.52-9.27-2.83-13.54-7.69-14.02-13.85-1.36-28.38,20.78-29.43,39.13-.75,13.08,5.01,23.99,16.18,24.89,7.89.63,16.17-3.22,22.97-9.62,1.43-19.29,5.38-27.54,12.91-27.69,2.82-.05,6.54,1.41,6.77,6.42.12,4.57-1.74,9.04-5.4,14.27,3.31-.63,4.3,1.65,4.33,2.89,0,4.42-2.81,10.87.51,10.84.94,0,1.95-.66,2.87-1.66,1.06-1.4,1.86-3.43,2.49-5.23,1.01-2.87,2.17-6.78,3.06-9.65.98-3.15,2.85-3.45,4.03-3.23,1.5.27,2.76.91,1.69,4.09-.51,1.53-1.74,4.09-1.97,7.92-.22,3.72,1.52,6.64,3.57,6.64,1.89,0,3.79-2.19,4.18-4.31-.1-.7-.16-1.44-.16-2.22,0-9.43,6.42-16.44,11.79-16.19,5.1.24,7.19,3.95,7.19,7.13-.08,4.08-2.43,8.48-5.6,7.45-2.67-.98-1.59-3.36-.55-5.07,1.28-2.06.54-3.51-.91-3.69-2.05-.26-5.9,4.05-5.9,9.86,0,5.42,3.27,6.49,5.36,6.61,4.92.27,12.46-3.29,13.83-13.54.74-5.58.87-6.88,1.69-15.67.24-2.62,2.05-3.07,2.67-3.1.84-.04,2.99.24,2.84,3.14-.23,4.47-.71,7.76-1.22,10.32,1.51-1.55,4.05-2.95,6.34-2.95,5.31,0,6.75,4.34,6.91,7.06.08,9.46-9.97,13.85-9.97,13.85,0,0,1.62,4.2,5.18,4.01,5.2-.27,5.78-5.89,8.38-6.11,1.76-.15,2,1.34,2,1.96h0Zm-74.25-24.89c-.03-.84-.45-1.89-1.47-2.09-3.14-.53-5.55,3.62-7.18,15.97-.11.86-.23,1.77-.33,2.72,2.03-2.31,3.68-4.39,5-6.28,3-4.32,4.21-7.63,3.98-10.32h0Zm63.24,12.38c.1-1.1-.39-3.06-2.47-3.06-2.29.11-5.2,2.09-6.09,11.46,1.65-.19,8.15-3.87,8.56-8.4h0ZM68.42,25.1c2.68,2.28,6.39,3.03,7.87,1.3,1.48-1.74.16-5.29-2.51-7.58-2.68-2.29-5.54-2.29-7.02-.56-1.48,1.73-1.02,4.55,1.66,6.84h0Zm26.12-3.24c3.82.83,8.17-4.24,9.5-10.34,1.33-6.1-.96-10.56-4.78-11.39-.41-.09-.83-.13-1.24-.13h-.02c-3.39.02-6.62,3.08-7.8,8.51-1.32,6.11.52,12.52,4.35,13.35h0Zm11.82,30.96c7.93-5.48,11.81-3.98,11.81-6,0-2.23-6.11-6.45-10.43-6.84.05,1.2.04,2.44-.03,3.72-.17,3.04-.63,6.11-1.35,9.11h0Zm-21.48-30.52c2.88-1.32,3.22-6.73,1.11-11.35-2.11-4.61-5.76-6.4-8.64-5.09-2.87,1.32-3.89,5.25-1.78,9.86,2.12,4.61,6.43,7.89,9.31,6.57h0Zm215.23,39.04h-.68v-3.36h1.25c.7,0,1.09.34,1.09.96,0,.51-.28.84-.73.93l1,1.47h-.77l-.96-1.44h-.2v1.44h0Zm0-2.07h.56c.28,0,.43-.11.43-.33s-.14-.33-.43-.33h-.56v.66h0Zm-1.7,2.58c-.58-.59-.86-1.32-.86-2.19s.28-1.6.86-2.19c.58-.59,1.3-.88,2.16-.88s1.58.29,2.15.88c.58.59.87,1.32.87,2.19s-.29,1.6-.87,2.19c-.58.59-1.29.88-2.15.88s-1.59-.29-2.16-.88h0Zm-.1-2.19c0,.67.21,1.23.63,1.68.42.45.96.67,1.63.67s1.22-.22,1.63-.67c.42-.45.63-1.01.63-1.68s-.21-1.23-.63-1.68c-.42-.45-.96-.67-1.63-.67s-1.22.22-1.63.67c-.42.45-.63,1.01-.63,1.68h0Z" fill="#dd1e35" stroke-width="0"></path><g><path d="m13.6,148.82l-.3-2.02c-1,1.48-2.51,2.24-4.59,2.24-2.43,0-4.48-.84-6.18-2.54s-2.54-4.08-2.54-7.13.86-5.43,2.62-7.13c1.75-1.7,3.86-2.54,6.37-2.54,4.08,0,6.86,2.38,7.85,5.97l-3.21.84c-.97-2.38-2.51-3.56-4.64-3.56-3.21,0-5.43,2.21-5.43,6.42s2.19,6.42,5.34,6.42c2.56,0,4-1.65,4.24-3.59h-3.51v-2.92h6.91v9.53h-2.94Z" fill="#dd1e35" stroke-width="0"></path><path d="m32.69,140.38l5.24,8.45h-3.91l-5.07-8.15h-1.84v8.15h-3.51v-18.89h6.88c3.67,0,5.75,2.13,5.75,5.37,0,2.51-1.27,4.4-3.54,5.07Zm-2.19-2.94c1.48,0,2.21-.7,2.21-2.13s-.73-2.13-2.21-2.13h-3.4v4.27h3.4Z" fill="#dd1e35" stroke-width="0"></path></g><g><path d="m42.63,129.93h11.69v3.24h-8.18v3.97h6.56v3.24h-6.56v5.21h8.45v3.24h-11.96v-18.89Z" fill="#dd1e35" stroke-width="0"></path><path d="m71.09,148.82l-1.38-4.45h-5.99l-1.38,4.45h-3.78l6.4-18.89h3.51l6.4,18.89h-3.78Zm-4.37-14.25l-2,6.56h3.99l-2-6.56Z" fill="#dd1e35" stroke-width="0"></path></g><g><path d="m75.81,133.17v-3.24h13.98v3.24h-5.24v15.66h-3.51v-15.66h-5.24Z" fill="#dd1e35" stroke-width="0"></path><path d="m94.6,129.93h11.69v3.24h-8.18v3.97h6.56v3.24h-6.56v5.21h8.45v3.24h-11.96v-18.89Z" fill="#dd1e35" stroke-width="0"></path></g><g><path d="m122.68,140.38l5.24,8.45h-3.91l-5.07-8.15h-1.84v8.15h-3.51v-18.89h6.88c3.67,0,5.75,2.13,5.75,5.37,0,2.51-1.27,4.4-3.54,5.07Zm-2.19-2.94c1.48,0,2.21-.7,2.21-2.13s-.73-2.13-2.21-2.13h-3.4v4.27h3.4Z" fill="#dd1e35" stroke-width="0"></path><path d="m151.09,129.71c3.27,0,5.99,1.27,7.64,4.27.84,1.48,1.27,3.29,1.27,5.4,0,4.21-1.86,7.29-4.48,8.66-1.32.67-2.78,1-4.43,1-3.27,0-5.97-1.27-7.67-4.26-.84-1.48-1.24-3.29-1.24-5.4,0-4.21,1.86-7.32,4.48-8.64,1.32-.67,2.78-1.03,4.43-1.03Zm0,3.24c-1.54,0-2.81.54-3.83,1.62-1,1.08-1.51,2.67-1.51,4.8s.51,3.72,1.51,4.8c1.03,1.08,2.29,1.62,3.83,1.62s2.81-.54,3.81-1.62c1.03-1.08,1.54-2.67,1.54-4.8s-.51-3.73-1.54-4.8c-1-1.08-2.27-1.62-3.81-1.62Z" fill="#dd1e35" stroke-width="0"></path><path d="m175.52,140.38l5.24,8.45h-3.91l-5.07-8.15h-1.84v8.15h-3.51v-18.89h6.88c3.67,0,5.75,2.13,5.75,5.37,0,2.51-1.27,4.4-3.54,5.07Zm-2.19-2.94c1.48,0,2.21-.7,2.21-2.13s-.73-2.13-2.21-2.13h-3.4v4.27h3.4Z" fill="#dd1e35" stroke-width="0"></path></g><path d="m184.92,129.93h3.51v15.66h8.02v3.24h-11.53v-18.89Z" fill="#dd1e35" stroke-width="0"></path><g><path d="m212.73,148.82l-1.38-4.45h-5.99l-1.38,4.45h-3.78l6.4-18.89h3.51l6.4,18.89h-3.78Zm-4.37-14.25l-2,6.56h4l-2-6.56Z" fill="#dd1e35" stroke-width="0"></path><path d="m232.41,129.93h3.51v18.89h-3.7l-6.94-12.47v12.47h-3.51v-18.89h3.7l6.94,12.47v-12.47Z" fill="#dd1e35" stroke-width="0"></path><path d="m243.49,148.82v-18.89h5.91c4.45,0,8.8,2.86,8.8,9.45s-4.35,9.45-8.8,9.45h-5.91Zm3.51-3.24h1.3c1.65,0,3-.35,4.26-1.21,1.3-.86,2.08-2.59,2.08-4.99s-.78-4.13-2.08-4.99c-1.27-.86-2.62-1.21-4.26-1.21h-1.3v12.42Z" fill="#dd1e35" stroke-width="0"></path><path d="m272.4,129.71c3.27,0,5.99,1.27,7.64,4.27.84,1.48,1.27,3.29,1.27,5.4,0,4.21-1.86,7.29-4.48,8.66-1.32.67-2.78,1-4.43,1-3.27,0-5.96-1.27-7.67-4.26-.84-1.48-1.24-3.29-1.24-5.4,0-4.21,1.86-7.32,4.48-8.64,1.32-.67,2.78-1.03,4.43-1.03Zm0,3.24c-1.54,0-2.81.54-3.83,1.62-1,1.08-1.51,2.67-1.51,4.8s.51,3.72,1.51,4.8c1.03,1.08,2.29,1.62,3.83,1.62s2.81-.54,3.81-1.62c1.03-1.08,1.54-2.67,1.54-4.8s-.51-3.73-1.54-4.8c-1-1.08-2.27-1.62-3.81-1.62Z" fill="#dd1e35" stroke-width="0"></path><path d="m307.37,148.82l-1.38-4.45h-5.99l-1.38,4.45h-3.78l6.4-18.89h3.51l6.4,18.89h-3.78Zm-4.37-14.25l-2,6.56h4l-2-6.56Z" fill="#dd1e35" stroke-width="0"></path><path d="m325.51,140.38l5.24,8.45h-3.91l-5.08-8.15h-1.83v8.15h-3.51v-18.89h6.88c3.67,0,5.75,2.13,5.75,5.37,0,2.51-1.27,4.4-3.54,5.07Zm-2.19-2.94c1.48,0,2.21-.7,2.21-2.13s-.73-2.13-2.21-2.13h-3.4v4.27h3.4Z" fill="#dd1e35" stroke-width="0"></path></g><g><path d="m335.12,129.93h11.69v3.24h-8.18v3.97h6.56v3.24h-6.56v5.21h8.45v3.24h-11.96v-18.89Z" fill="#dd1e35" stroke-width="0"></path><path d="m363.57,148.82l-1.38-4.45h-5.99l-1.38,4.45h-3.78l6.4-18.89h3.51l6.4,18.89h-3.78Zm-4.37-14.25l-2,6.56h4l-2-6.56Z" fill="#dd1e35" stroke-width="0"></path></g></g></g></svg> 