<?xml version="1.0" encoding="UTF-8"?> <svg xmlns="http://www.w3.org/2000/svg" xmlns:xlink="http://www.w3.org/1999/xlink" width="274.448" height="143.175" viewBox="0 0 274.448 143.175"><defs><clipPath id="clip-path"><rect id="Rectangle_1569" data-name="Rectangle 1569" width="274.448" height="143.175" fill="none"></rect></clipPath></defs><g id="Group_1411" data-name="Group 1411" clip-path="url(#clip-path)"><path id="Path_4242" data-name="Path 4242" d="M179.155,131.167l18.853-73.2h20.5c12.067,0,17.213,1.729,20.392,6.849,2.918,4.706,3.409,10.268,1.546,17.507-3.187,12.368-10.867,17.919-15.162,20.127-3.591,1.866-8.666,2.737-15.963,2.737h-3.168l-6.693,25.983Zm31.494-42.678c4,0,8.054-.584,9.851-7.564.4-1.538.68-3.614-.216-4.77-1.161-1.5-4.245-1.5-5.9-1.5h-.366l-3.56,13.831Z" transform="translate(30.871 9.988)" fill="#fff"></path><path id="Path_4243" data-name="Path 4243" d="M218.9,60.28c12.366,0,16.215,1.933,18.674,5.894s3.123,8.887,1.306,15.938c-3.084,11.978-10.56,17-14.128,18.836-3.9,2.027-9.533,2.513-15.038,2.513h-4.735l-6.693,25.983H182.146L199.959,60.28ZM208.233,90.806h2.8c4.444,0,9.669-.773,11.808-9.081,2.214-8.6-4.4-8.79-8.076-8.79h-1.93l-4.6,17.871M218.9,56.24H196.826l-.781,3.033-17.812,69.163-1.3,5.048h24.481l.781-3.033,5.913-22.949h1.6c7.633,0,13-.944,16.9-2.968,4.58-2.356,12.795-8.282,16.177-21.413,2.012-7.81,1.443-13.871-1.783-19.076-3.578-5.763-9.363-7.8-22.11-7.8m-5.416,30.392L215.96,77c2.284.095,2.933.461,3.112.692.131.171.365,1.049-.144,3.028-1.107,4.3-2.971,5.559-5.449,5.914" transform="translate(30.488 9.691)" fill="#1a1818"></path><path id="Path_4244" data-name="Path 4244" d="M181.4,131.165l.859-11.686H171.07l-4.32,11.686H146.165l32.166-73.189h23.158l.1,73.189Zm1.855-28.86,1.279-19.014L177.485,102.3Z" transform="translate(25.186 9.99)" fill="#fff"></path><path id="Path_4245" data-name="Path 4245" d="M199.926,60.294l.094,69.147H184.031l.86-11.686H170.118l-4.32,11.686H149.716L180.1,60.294ZM187.9,70.434h-.188l-12.68,34.187H185.6l2.3-34.187m16.061-14.181h-26.5L176.4,58.668l-30.389,69.147-2.491,5.667h25.088l.975-2.64,3.345-9.046h7.609l-.54,7.348-.319,4.338h24.384l-.006-4.047-.094-69.147Zm-23.119,44.328,1.2-3.227-.217,3.227Z" transform="translate(24.731 9.693)" fill="#222"></path><path id="Path_4246" data-name="Path 4246" d="M111.222,139.134h38.866L212.5,0H175.774c-16.92,11.615-34.119,19.259-50.084,21.664L111.077,54.5c14.282-1.714,30.24-6.111,45.655-16.711Z" transform="translate(19.14 0)" fill="#fff"></path><path id="Path_4247" data-name="Path 4247" d="M125.34,136.878,163.955,50.89a109.542,109.542,0,0,1-33.082,9.081l-3.413.41-9.247,20.65h-.388L102.418,0H62.194L0,139.134H40.418L76.462,58.3h.388L92.5,139.134h31.831Z" transform="translate(0 0)" fill="#fff"></path></g></svg> 