<?xml version="1.0" encoding="UTF-8"?> <svg xmlns="http://www.w3.org/2000/svg" xmlns:xlink="http://www.w3.org/1999/xlink" width="100.969" height="auto" viewBox="0 0 100.969 52.674"><g><path d="M179.155,84.895l6.936-26.932h7.543c4.439,0,6.333.636,7.5,2.52,1.073,1.731,1.254,3.778.569,6.441a11.113,11.113,0,0,1-5.578,7.4,12.912,12.912,0,0,1-5.873,1.007h-1.165l-2.462,9.559Zm11.587-15.7c1.471,0,2.963-.215,3.624-2.783a2.223,2.223,0,0,0-.079-1.755c-.427-.551-1.562-.551-2.172-.551h-.135l-1.31,5.088Z" transform="translate(-101.887 -32.964)" fill="#1a1818"></path><path d="M192.37,57.726c4.549,0,5.966.711,6.87,2.169s1.149,3.27.48,5.863a10.353,10.353,0,0,1-5.2,6.93,12.7,12.7,0,0,1-5.533.925h-1.742l-2.462,9.559H178.85L185.4,57.726Zm-3.923,11.23h1.03c1.635,0,3.557-.284,4.344-3.341.815-3.163-1.62-3.234-2.971-3.234h-.71l-1.693,6.575M192.37,56.24h-8.119l-.287,1.116L177.411,82.8l-.479,1.857h9.007l.287-1.116L188.4,75.1h.589a13.58,13.58,0,0,0,6.218-1.092,11.844,11.844,0,0,0,5.951-7.878c.74-2.873.531-5.1-.656-7.018-1.316-2.12-3.445-2.871-8.134-2.871m-1.993,11.181.913-3.544c.84.035,1.079.169,1.145.254.048.063.134.386-.053,1.114-.407,1.581-1.093,2.045-2,2.176" transform="translate(-100.622 -31.984)" fill="#fff"></path><path d="M159.129,84.9l.316-4.3h-4.118l-1.589,4.3h-7.573L158,57.976h8.52l.037,26.926Zm.682-10.618.471-7-2.594,7Z" transform="translate(-83.125 -32.971)" fill="#1a1818"></path><path d="M164.275,57.74l.035,25.439h-5.882l.317-4.3h-5.435l-1.589,4.3H145.8l11.18-25.439Zm-4.424,3.731h-.069l-4.665,12.577H159l.846-12.577m5.909-5.217h-9.748l-.39.888L144.441,82.58l-.917,2.085h9.23l.359-.971,1.23-3.328h2.8l-.2,2.7-.117,1.6H165.8l0-1.489-.035-25.439Zm-8.506,16.308.44-1.187-.08,1.187Z" transform="translate(-81.624 -31.991)" fill="#fff"></path><path d="M111.13,51.187h14.3L148.39,0H134.879c-6.225,4.273-12.552,7.085-18.426,7.97l-5.376,12.082a36.841,36.841,0,0,0,16.8-6.148Z" transform="translate(-63.17 0)" fill="#1a1818"></path><path d="M46.113,50.357,60.319,18.722a40.3,40.3,0,0,1-12.171,3.341l-1.255.151-3.4,7.6h-.143L37.679,0h-14.8L0,51.187H14.87L28.13,21.447h.143l5.756,29.74H45.74Z" transform="translate(0 0)" fill="#1a1818"></path></g></svg> 