<svg xmlns="http://www.w3.org/2000/svg" width="225" viewBox="0 0 541.75 473.49">
  <polygon data-name="Separator" points="517.42 341.98 484.83 341.98 .48 341.98 .48 337.33 20.3 337.33 517.42 337.33 517.42 341.98" fill="#fff"/>
  <path data-name="Mastercard Brand Mark" d="m145.05,455.93v-1.49h.6v-.3h-1.53v.3h.59v1.49h.33Zm2.96,0v-1.8h-.46l-.54,1.24-.54-1.24h-.47v1.8h.33v-1.35l.51,1.17h.35l.5-1.17v1.35h.33Zm80.9-13.06v-19.28c0-7.26-4.63-12.14-12.08-12.21-3.91-.07-7.96,1.15-10.79,5.46-2.13-3.41-5.46-5.46-10.16-5.46-3.27,0-6.49.96-9,4.55v-3.78h-6.68v30.72h6.75v-17.03c0-5.34,2.96-8.16,7.52-8.16s6.69,2.89,6.69,8.09v17.1h6.74v-17.03c0-5.34,3.1-8.16,7.52-8.16s6.75,2.89,6.75,8.09v17.1h6.75Zm99.86-30.72h-10.92v-9.32h-6.76v9.32h-6.23v6.1h6.23v14c0,7.14,2.77,11.38,10.67,11.38,2.89,0,6.23-.89,8.35-2.37l-1.93-5.73c-1.99,1.16-4.18,1.74-5.9,1.74-3.35,0-4.44-2.06-4.44-5.14v-13.88h10.92v-6.1Zm56.99-.77c-3.85,0-6.36,1.8-8.1,4.5v-3.73h-6.62v30.72h6.69v-17.22c0-5.07,2.19-7.91,6.56-7.91,1.34,0,2.76.19,4.17.77l2.07-6.29c-1.48-.58-3.41-.84-4.76-.84m-86.17,3.21c-3.21-2.12-7.65-3.21-12.53-3.21-7.78,0-12.78,3.72-12.78,9.83,0,5.01,3.71,8.1,10.59,9.06l3.16.45c3.66.51,5.4,1.48,5.4,3.22,0,2.37-2.44,3.72-7.01,3.72s-7.97-1.47-10.22-3.22l-3.15,5.2c3.66,2.7,8.29,3.98,13.3,3.98,8.87,0,14.01-4.17,14.01-10.02,0-5.4-4.05-8.23-10.74-9.19l-3.14-.45c-2.89-.38-5.21-.96-5.21-3.02,0-2.25,2.19-3.6,5.85-3.6,3.92,0,7.72,1.47,9.58,2.63l2.89-5.4Zm179.02-3.21c-3.85,0-6.36,1.8-8.1,4.5v-3.73h-6.61v30.72h6.68v-17.22c0-5.07,2.18-7.91,6.56-7.91,1.35,0,2.76.19,4.18.77l2.06-6.29c-1.48-.58-3.41-.84-4.76-.84m-86.1,16.13c0,9.31,6.49,16.12,16.38,16.12,4.63,0,7.72-1.02,11.06-3.66l-3.21-5.4c-2.51,1.8-5.14,2.76-8.03,2.76-5.34-.06-9.26-3.92-9.26-9.83s3.91-9.77,9.26-9.83c2.89,0,5.52.96,8.03,2.76l3.21-5.4c-3.34-2.64-6.43-3.66-11.06-3.66-9.9,0-16.38,6.81-16.38,16.13m62.59,0v-15.36h-6.69v3.73c-2.12-2.77-5.33-4.5-9.7-4.5-8.61,0-15.35,6.74-15.35,16.13s6.75,16.12,15.35,16.12c4.38,0,7.58-1.73,9.7-4.49v3.72h6.69v-15.35Zm-24.87,0c0-5.41,3.54-9.83,9.32-9.83s9.25,4.24,9.25,9.83-3.72,9.83-9.25,9.83-9.32-4.43-9.32-9.83m-80.65-16.13c-8.99,0-15.29,6.55-15.29,16.13s6.56,16.12,15.75,16.12c4.62,0,8.88-1.16,12.59-4.3l-3.28-4.95c-2.55,2.06-5.83,3.22-8.93,3.22-4.3,0-8.22-2-9.19-7.52h22.82c.06-.83.12-1.67.12-2.56-.06-9.58-5.96-16.13-14.59-16.13m-.12,5.97c4.31,0,7.06,2.69,7.77,7.45h-15.93c.71-4.44,3.41-7.45,8.16-7.45m167.65,10.16v-27.7h-6.68v16.07c-2.13-2.77-5.34-4.5-9.7-4.5-8.61,0-15.35,6.74-15.35,16.13s6.74,16.12,15.35,16.12c4.37,0,7.58-1.73,9.7-4.49v3.72h6.68v-15.35Zm7.81,12.52c.28,0,.53.05.78.16.24.1.44.24.63.41.17.18.32.38.43.63.1.24.15.48.15.76,0,.26-.05.51-.15.75-.1.24-.25.44-.43.62-.18.17-.39.31-.63.42-.24.1-.5.16-.78.16s-.54-.05-.78-.16c-.24-.1-.45-.24-.63-.42-.18-.18-.32-.38-.43-.62-.1-.24-.16-.49-.16-.75,0-.28.05-.52.16-.76.1-.24.24-.44.43-.63.17-.17.39-.31.63-.41.24-.1.51-.16.78-.16m0,3.47c.21,0,.41-.03.58-.12.19-.08.34-.19.49-.32.13-.14.24-.3.31-.49.09-.17.12-.38.12-.58,0-.22-.03-.41-.12-.6-.08-.17-.18-.34-.31-.48-.15-.14-.3-.24-.49-.31-.17-.09-.37-.12-.58-.12s-.41.03-.6.12c-.18.07-.35.17-.48.31-.14.14-.25.31-.32.48-.08.19-.12.38-.12.6,0,.2.04.41.12.58.07.19.18.35.32.49.13.13.3.24.48.32.19.09.38.12.6.12m.11-2.43c.24,0,.41.05.54.16.13.1.18.24.18.42,0,.15-.04.28-.14.37-.1.09-.25.15-.44.17l.59.68h-.46l-.55-.67h-.17v.67h-.38v-1.8h.83Zm-.44.33v.49h.44c.1,0,.19-.02.25-.06.06-.04.09-.1.09-.18s-.03-.14-.09-.18c-.06-.03-.15-.06-.25-.06h-.44Zm-32.35-13.89c0-5.41,3.53-9.83,9.32-9.83s9.25,4.24,9.25,9.83-3.72,9.83-9.25,9.83-9.32-4.43-9.32-9.83m-225.68,0v-15.36h-6.69v3.73c-2.12-2.77-5.33-4.5-9.7-4.5-8.6,0-15.35,6.74-15.35,16.13s6.75,16.12,15.35,16.12c4.38,0,7.59-1.73,9.7-4.49v3.72h6.69v-15.35Zm-24.87,0c0-5.41,3.54-9.83,9.33-9.83s9.24,4.24,9.24,9.83-3.72,9.83-9.24,9.83c-5.79,0-9.33-4.43-9.33-9.83m-171.06,37.34c.37.31.74.61,1.12.92-7.32,4.88-16.1,7.72-25.56,7.72-25.51,0-46.18-20.68-46.18-46.19s20.67-46.18,46.18-46.18c9.46,0,18.24,2.84,25.56,7.72-.37.31-.75.61-1.12.92-10.88,9.47-17.12,23.16-17.12,37.54s6.24,28.08,17.12,37.55m32.63-83.73c-9.45,0-18.24,2.84-25.55,7.72.37.31.75.61,1.12.92,10.88,9.47,17.12,23.16,17.12,37.54s-6.24,28.08-17.12,37.55c-.37.31-.74.61-1.12.92,7.32,4.88,16.11,7.72,25.56,7.72,25.51,0,46.19-20.68,46.19-46.19s-20.68-46.18-46.19-46.18m-28.54,9.9c-.59.47-1.18.94-1.74,1.45-9.73,8.47-15.89,20.92-15.89,34.84s6.16,26.38,15.89,34.85c.57.51,1.15.98,1.74,1.45.59-.47,1.18-.94,1.74-1.45,9.73-8.47,15.89-20.92,15.89-34.85s-6.16-26.37-15.89-34.84c-.57-.51-1.15-.98-1.74-1.45" fill="#fff"/>
  <g data-name="Arnold Palmer Invitational">
    <path d="m26.09,265.54c-2.44,0-3.12,1.81-3.12,3.75l-.31,33.83c0,1.93.99,3.73,2.87,3.73v1.13c-1.31,0-3.18-.24-5.3-.24-1.87,0-3.74.24-4.99.24v-1.13c1.75,0,2.75-1.8,2.75-3.73l-.32-33.83c0-1.94-.68-3.75-3.11-3.75v-1.12c1.93,0,3.8.24,5.67.24,2.12,0,3.99-.24,5.87-.24v1.12Z" fill="#fff"/>
    <path d="m41.82,264.41h1.37c2,2.12,3.81,4.49,5.86,6.61l26.78,27.71v-20.6c0-10.92-.74-11.79-4.8-12.61v-1.12c2.43,0,4.24.24,6.05.24s3.62-.24,5.43-.24v1.12c-3.37.82-4.11,1.69-4.11,4.87v37.57h-1.38l-32.07-33.13v23.78c0,6.56.74,7.43,4.37,8.24v1.12c-2.07,0-3.87-.24-5.68-.24-2.37,0-4.18.24-5.75.24v-1.12c3.18-.81,3.93-1.68,3.93-4.86v-37.57Z" fill="#fff"/>
    <path d="m111.28,308.73l-16.1-40.26c-.99-2.49-1.37-2.67-3.12-2.92v-1.13c1.93,0,3.87.25,5.8.25s3.87-.25,5.81-.25v1.13c-.63.12-2.31.5-2.31,1.13,0,.37.19,1.06.68,2.49l11.17,31.64,11.36-28.4c.69-1.8.81-3.73.81-4.1,0-1.94-.56-2.45-2.68-2.75v-1.13c1.8,0,3.62.25,5.43.25s3.62-.25,5.49-.25v1.13c-2.19.25-2.87,1.13-3.87,3.49l-16.79,39.7h-1.69Z" fill="#fff"/>
    <path d="m155.78,265.54c-2.43,0-3.12,1.81-3.12,3.75l-.31,33.83c0,1.93,1,3.73,2.87,3.73v1.13c-1.3,0-3.17-.24-5.3-.24-1.87,0-3.74.24-4.99.24v-1.13c1.75,0,2.75-1.8,2.75-3.73l-.31-33.83c0-1.94-.69-3.75-3.12-3.75v-1.12c1.93,0,3.8.24,5.67.24,2.13,0,4-.24,5.87-.24v1.12Z" fill="#fff"/>
    <path d="m174.31,267.22c-4.05,0-5.42,1.08-6.56,4.37h-1.12l-.25-7.92h.32c.99.37,2.5.74,3.68.74,5.11,0,10.22.24,15.35.24s10.23-.24,15.35-.24c1.19,0,2.68-.38,3.68-.74h.32l-.25,7.92h-1.13c-1.12-3.29-2.5-4.37-6.55-4.37h-8.74l-.18,35.89c0,2.31.94,2.94,4.18,3.74v1.12c-2.25,0-4.49-.24-6.74-.24s-4.49.24-6.74.24v-1.12c3.43-.8,4.31-1.44,4.31-3.74l-.18-35.89h-8.74Z" fill="#fff"/>
    <path d="m216.7,295.5l-2,5.48c-.43,1.19-.43,2.75-.43,3.38,0,1.12,1.13,1.93,2.68,2.49v1.12c-1.55,0-3.18-.24-4.74-.24s-3.25.24-5.18.24v-1.12c3.12-1,3.56-2.49,4.68-5.24l15.09-37.95h1.07l13.55,37.95c1.05,2.99,1.92,4.11,4.93,5.24v1.12c-1.87,0-3.75-.24-5.62-.24s-3.74.24-5.62.24v-1.12c.82-.56,2.19-1.37,2.19-2.12,0-.99-.38-1.81-.69-2.69l-2.43-6.54h-17.47Zm1-2.56h15.66l-7.36-20.35-8.3,20.35Z" fill="#fff"/>
    <path d="m255.03,267.22c-4.07,0-5.44,1.08-6.56,4.37h-1.12l-.25-7.92h.31c1.01.37,2.5.74,3.69.74,5.11,0,10.22.24,15.35.24s10.22-.24,15.36-.24c1.19,0,2.67-.38,3.68-.74h.31l-.24,7.92h-1.13c-1.11-3.29-2.49-4.37-6.55-4.37h-8.74l-.19,35.89c0,2.31.94,2.94,4.18,3.74v1.12c-2.25,0-4.49-.24-6.74-.24s-4.49.24-6.74.24v-1.12c3.43-.8,4.31-1.44,4.31-3.74l-.18-35.89h-8.74Z" fill="#fff"/>
    <path d="m307.89,265.54c-2.45,0-3.12,1.81-3.12,3.75l-.32,33.83c0,1.93.99,3.73,2.87,3.73v1.13c-1.31,0-3.18-.24-5.3-.24-1.87,0-3.74.24-4.99.24v-1.13c1.75,0,2.75-1.8,2.75-3.73l-.31-33.83c0-1.94-.68-3.75-3.12-3.75v-1.12c1.93,0,3.8.24,5.67.24,2.12,0,3.99-.24,5.87-.24v1.12Z" fill="#fff"/>
    <path d="m343.58,263.66c12.98,0,22.53,9.74,22.53,22.53s-9.55,22.53-22.53,22.53-22.53-9.73-22.53-22.53,9.55-22.53,22.53-22.53m0,43.06c11.67,0,16.6-9.11,16.6-20.54s-4.94-20.53-16.6-20.53-16.6,9.11-16.6,20.53,4.94,20.54,16.6,20.54" fill="#fff"/>
    <path d="m381.84,264.41h1.38c1.99,2.12,3.81,4.49,5.86,6.61l26.78,27.71v-20.6c0-10.92-.74-11.79-4.8-12.61v-1.12c2.44,0,4.24.24,6.05.24s3.62-.24,5.43-.24v1.12c-3.37.82-4.12,1.69-4.12,4.87v37.57h-1.38l-32.07-33.13v23.78c0,6.56.74,7.43,4.37,8.24v1.12c-2.06,0-3.87-.24-5.69-.24-2.36,0-4.17.24-5.73.24v-1.12c3.17-.81,3.93-1.68,3.93-4.86v-37.57Z" fill="#fff"/>
    <path d="m440.87,295.5l-1.99,5.48c-.43,1.19-.43,2.75-.43,3.38,0,1.12,1.12,1.93,2.67,2.49v1.12c-1.55,0-3.18-.24-4.74-.24s-3.25.24-5.19.24v-1.12c3.13-1,3.57-2.49,4.68-5.24l15.1-37.95h1.07l13.54,37.95c1.06,2.99,1.94,4.11,4.93,5.24v1.12c-1.87,0-3.74-.24-5.61-.24s-3.75.24-5.62.24v-1.12c.81-.56,2.18-1.37,2.18-2.12,0-.99-.38-1.81-.69-2.69l-2.43-6.54h-17.48Zm1-2.56h15.66l-7.37-20.35-8.29,20.35Z" fill="#fff"/>
    <path d="m484.07,287.51c0-20.98-.25-21.47-3.62-21.97v-1.13c2.24,0,4.11.24,5.99.24,2.11,0,3.99-.24,5.55-.24v1.13c-2.13,0-2.92,1.81-2.92,3.74,0,3-.38,12.49-.38,18.23s.38,13.22.38,18.09h12.35c4.75,0,6.68-1.69,8.29-5.12l1.01.31-1.56,7.49c-2.12-.56-9.49-.56-14.11-.56s-9.29.24-13.9.24v-1.12c2.11,0,2.92-1.8,2.92-3.74v-15.59Z" fill="#fff"/>
    <path d="m164.21,231.51c-.62-1.93-.02-4.06,1.42-6.26,1.44-2.18,4.48-4.85,3.89-2.73-.6,2.12.24,3.57.24,3.57-1.23,4.58-4.94,7.35-5.55,5.42m-99.55-3.54c1-4.27,2.73-9.34,6.5-14.75,0,0,42.52-50.29,48.46-60.37,0,0,10.34-15.06,4.07-15.55-6.27-.51-11.72,2.63-13.77,4.93-2.04,2.28-31.57,37.24-46.16,67.9,0,0-16.67,24.85-34.9,33.29-18.25,8.46-25.97-15.79-8.02-53.38,17.95-37.63,34.53-61.72,70.23-93.14,35.69-31.43,65.92-38.44,81.82-27.4,15.9,11.03,9.02,36.54,5.71,47.3-3.32,10.75-6.55,20.75-6.42,21.77.13,1.04,1.22,4.46,4.4,1.3,3.17-3.16,12.65-27.37,13.99-44.68,1.32-17.32-10.81-40.82-42.44-36.18-31.64,4.65-81.87,43.14-116.06,94.46-19.17,28.76-42.56,79.96-23.6,95.12,19.42,15.5,43.98-10.17,48.59-16.45,0,0-3.56,12.74,7.11,12.5,13.16-.29,22.79-7.45,29.91-15.64,0,0-2.07,10.22,7.45,9.66,7.45-.43,14.24-6.06,14.24-6.06,0,0,1.66,7.3,7.45,6.98,7.98-.44,13.45-5.14,13.45-5.14,0,0,4.41,3.91,11.42,3.23,7.01-.68,9.22-3.62,9.22-3.62,0,0,5.69,6.08,11.77,3.28,5.87-2.72,6.31-7.52,6.31-7.52,0,0,9.81,1.34,14.46-.96,0,0-3.42,8.87,4.01,10.28,6.18,1.16,13.31-3.97,13.31-3.97,0,0,4.66,4.78,9.47,4.18,6.33-.8,10.67-5.22,10.67-5.22,0,0-1.8,8.66-.95,11.16.51,1.56,4.4,4.46,7.48.91,3.09-3.57,1.3-7.71,5-23.73,0,0,12.47-14.58,29.67-38.19,17.2-23.61,26.36-40.18,21.18-42.71-6.86-3.36-18.28,8.77-32.93,30.83-14.64,22.05-18.56,32.22-23.53,46.82,0,0-5.81,7.77-11.1,10.83-5.08,2.93-8.32,3.22-1.44-7.61,0,0,2.82,3.21,5.63.85,0,0,8.3-10.06,2.92-13.75-5.38-3.7-6.77-.57-9.38,2.17-2.62,2.72-13.27,16.98-20.06,20.05-3.73,1.69-4.96.49-1.58-8.73,0,0,15.26-6.92,26.88-23.37,10.99-15.56,16.69-30.95,8.01-28.67-9.07,2.36-21.18,17.46-27.87,26.62-10.68,14.68-12.93,23.27-12.93,23.27,0,0-6.42,4.29-15.01,4.1,0,0,7.84-6.14,5.26-10-2.57-3.86-14.81-4.64-22.35,7.45,0,0-6.95,5.91-10.6,8.18-3.66,2.25-7.57,1.1-3.83-3.34,3.75-4.44,9.42-9.51,6.92-15.37-2.5-5.87-7.92,1.24-9.97,4.21-2.03,2.95-9.56,13.54-14.79,16.29-5.23,2.74-3.92-2.5-2.73-6.75,1.19-4.24,1.7-4.35,3.28-6.19,1.58-1.83,3.41-8.71-.66-8.52-4.07.18-7.31,3.17-8.74,6.54-1.41,3.37-7.76,11.23-12.85,14.17-5.08,2.94-5.21-3-2.26-6.53,2.97-3.52,8.22-5.08,1.33-10.98-2.25-1.93-2.7-10.23-8.93-1.58-13.38,18.67-36.28,34.82-31.75,15.43m157.58-40.84c8.15-8.81,6.16-2.12-2.06,8.71-8.23,10.83-17.56,18.15-17.56,18.15,2.53-5.61,10.96-17.49,19.62-26.86m52.17-26.65c5.2-5.29.8,1.95-5.68,12.15-6.45,10.19-19.53,26.19-19.53,26.19,8.51-17.38,20.02-33.05,25.21-38.34" fill="#fff"/>
    <path d="m532.36,221.16c1.68,0,3.24.42,4.69,1.25,1.44.85,2.59,2,3.43,3.44.84,1.44,1.27,3.01,1.27,4.68s-.43,3.24-1.26,4.69c-.84,1.44-1.98,2.58-3.43,3.43-1.45.83-3.01,1.25-4.7,1.25s-3.26-.41-4.71-1.25c-1.44-.84-2.58-1.97-3.42-3.43-.84-1.44-1.26-3.01-1.26-4.69s.42-3.24,1.27-4.7c.84-1.44,1.98-2.59,3.43-3.43,1.45-.83,3.01-1.24,4.69-1.24m0,1.55c-2.14,0-3.99.77-5.51,2.29-1.53,1.54-2.28,3.38-2.28,5.53s.75,4.01,2.28,5.52c1.52,1.52,3.36,2.28,5.52,2.28s3.99-.77,5.51-2.28c1.52-1.52,2.28-3.37,2.28-5.52s-.77-3.99-2.28-5.53c-1.53-1.52-3.37-2.29-5.51-2.29m-2.11,12.85h-1.62v-10.08h3.49c1.23,0,2.1.1,2.6.29.52.21.92.53,1.23.97.3.46.46.95.46,1.47,0,.76-.27,1.41-.8,1.94-.55.52-1.24.82-2.1.88.39.17.76.43,1.1.78.35.37.77.95,1.29,1.78l1.22,1.95h-1.99l-.88-1.58c-.64-1.13-1.14-1.86-1.52-2.2-.39-.34-.88-.5-1.5-.5h-.96v4.27Zm0-8.71v3.05h1.98c.85,0,1.46-.13,1.84-.38.39-.24.58-.63.58-1.17s-.19-.94-.57-1.16c-.37-.23-1.03-.35-1.98-.35h-1.86Z" fill="#fff"/>
    <path d="m514.47,232.93c-7.9,2.59-34.12,10.95-44.08,5.68-4.14-2.19,1.92-7.56,2.82-9.46.9-1.93,4.13-3.56-.41-7.82-4.56-4.27-2.49-12.97-10.81-2.81-5.41,6.6-16.57,17.08-29.94,15.82,0,0,10.95-3.57,16.56-11.18,6.87-9.32-18.01-16.01-26.83,9.61,0,0-17.47,7.69-9.91-1.88,0,0,10.15-8.57,2.78-9.11-7.37-.55-8.04,5.11-14.05,10.12-6.01,5.02-15.94,8.59-9.97-1.19,4.72-7.79,2.33-8.16-1.08-7.9-3.43.27-12.7,9.97-16.71,12.52-4.04,2.56-9.38,4.96-1.83-7.31,7.57-12.26-3.11-7.81-6.55-4.49-1.75,1.66-17.25,11.42-24.27,13.63-7.02,2.18-3.54-1.45-3.54-1.45,0,0,20.09-11.09,67.47-51.33,0,0,59.18-4.7,94.65-35.56,35.45-30.86,31.15-87.79.39-101.62-30.77-13.83-70.4,4.04-126.41,59.78,0,0,5.5-12.17-.01-11.14-5.53,1.01-6.16,4.29-16.15,19.01-.7,1.04-1.53,2.17-2.34,3.29-1.85-30.07-13.52-61.86-39.01-85.59l4.82-5.47c1.19-1.36,1.06-3.44-.29-4.62-1.36-1.2-3.43-1.08-4.62.29l-4.82,5.47C267.21-7.7,207.84-5.38,170.76,13.27c0,0,7.31-.3,21.66,19.09,11.15,15.06,10.98,27.13,10.98,27.13,0,0,13.05,1.03,29,18.58,9.63,10.57,12.34,18.86,12.99,23.79l-52.25,59.3c-1.19,1.36-1.08,3.44.28,4.64,1.37,1.2,3.43,1.05,4.64-.3l52.21-59.26c4.96,0,13.56,1.61,25.32,9.88,19.41,13.59,22.08,26.42,22.08,26.42,0,0,11.94-1.68,28.29,7.48.77.43,1.44.84,2.15,1.25-3.1,4.01-6.28,8.19-9.54,12.68-8.48,11.69-15.33,20.79-15.33,20.79l-26.78.83s-4.57,1.48-2.47,3.75c2.1,2.28,11.28,1.7,15.31,1.85,4.04.14,9.82-.18,9.82-.18,0,0-5.31,7.47-13.63,20.66-8.33,13.18-15.52,25.14-15.52,25.14,0,0-4.29,4.88-.79,9.38,3.52,4.46,7.05-3.81,8.96-7.04,14.44-24.62,31.59-49.23,31.59-49.23l59.02-2.02s-32.53,34.59-37.28,43.14c0,0-4.68,5.17-9.89,3.55,0,0,9.04-4.99,14.03-18.25,4.96-13.25-12.44-7.25-20.26-2.26-12.33,7.89-20.19,18.35-21.52,23.93-1.36,5.57.69,13.92,20.43,1.44,0,0,5.25,4,15.14.45,0,0,3.41,5.52,13.58,2.32,10.16-3.23,15.84-8.23,15.84-8.23,0,0-1.51,6.84,2.95,9.14,6.06,3.09,18.33-6.25,18.33-6.25,0,0,1.82,7.31,8.59,7.1,8.48-.24,12.12-5.29,12.12-5.29,0,0,6.66,6.54,23.04-.6,0,0,10.05,12.02,38.1-7.92,0,0-4.8,20.16,27.25,14.92,34.11-5.55,33.18-14.75,25.28-12.15ZM207.73,53.67c-.74-5.21-4.76-22.32-26.37-39.97,0,0,64.95-25.1,118.86,11.66.12.17.25.37.34.59l-.45-.12c-29.67-7.75-60.76,1.63-92.38,27.84Zm93.43,81.09c-10.58-18.43-23.47-27.03-32.57-31.01-6.43-2.81-11.82-3.77-15.05-4.09l54.54-61.89c1.23-.27,5.07.29,7.92,5.1l.05.09c11.1,27.36,6.09,58.22-14.9,91.78Zm101.96,42.48l-16.13,2.03c22.42-22.14,39.19-33.71,45.74-37.74,6.57-4.01,5.17-.9-1.43,7.68-6.61,8.57-28.18,28.02-28.18,28.02Zm-88.89,6.11s8.31-11.03,21.93-26.91c11.02,7.94,11.4,12.6,11.4,12.6,3.51-9.88,5.8-21.04,6.61-32.82,18.72-20.25,42.32-43.39,67.02-61.6,33.8-24.92,72.2-38.61,87.19-6.06,15.01,32.53,2.05,61.7-23.98,81.54-26.02,19.84-70.63,25.62-70.63,25.62,29.78-25.81,33.53-32.46,34.97-40.87,1.7-9.93-10.36-6.48-29.92,7.37-19.57,13.86-42.19,37.66-42.19,37.66-23.82,1.53-62.39,3.47-62.39,3.47Zm64.9,3.58s6.68-.55,13.49-1.08c0,0-15.94,15.31-43.56,34.28,0,0,21.61-23.84,30.07-33.2Zm-68.25,47.36c-9.63,6.43-6.56-4.33,6.45-13.66,14.25-10.2,6.75,2.83,6.75,2.83-2.55-4.1-13.21,10.83-13.21,10.83Zm127.43-12.71c2.13-.32,2.53,1.49.27,3.4-2.68,2.28-8.35,4.74-8.35,4.74,1.15-1.12,3.43-7.43,8.07-8.14Z" fill="#fff"/>
  </g>
</svg>