<?xml version="1.0" encoding="UTF-8"?>
<svg width="95" xmlns="http://www.w3.org/2000/svg" viewBox="0 0 580.51 178.33">
  <path d="m15.34,60.41h19.16l-9.01-24.88-10.15,24.88Zm-1.22,3.13l-2.44,6.72c-.53,1.45-.53,3.36-.53,4.12,0,1.37,1.37,2.37,3.28,3.05v1.37c-1.91,0-3.89-.31-5.8-.31s-3.97.31-6.34.31v-1.37c3.82-1.22,4.35-3.05,5.72-6.41L26.48,24.62h1.3l16.56,46.41c1.3,3.66,2.37,5.04,6.03,6.41v1.37c-2.29,0-4.58-.31-6.87-.31s-4.58.31-6.87.31v-1.37c.99-.69,2.67-1.68,2.67-2.6,0-1.22-.46-2.21-.84-3.28l-2.98-8.02H14.12Z" fill="#fff"/>
  <path d="m64.8,53.01c.92.15,2.14.46,3.51.46,8.4,0,13.89-5.04,13.89-12.75s-4.73-13.36-13.43-13.36c-3.05,0-3.66.15-3.66,2.6,0,3.51-.31,7.63-.31,10.92v12.14Zm-6.11-.84c0-6.87-.31-13.81-.31-19.31,0-3.97-.84-5.96-4.2-5.96v-1.37c3.66,0,10.23-.46,14.27-.46,10.53,0,20.38,3.97,20.38,15.8,0,7.1-6.34,12.14-12.9,13.81l16.87,19.62c1.6,1.91,2.98,2.52,4.81,3.13v1.37c-1.98,0-3.97-.31-5.95-.31s-3.97.31-5.95.31v-1.37c.23-.15.61-.38.61-.53,0-.23-.3-.84-.61-1.22l-13.05-15.88c-1.83-2.21-4.2-3.97-7.86-4.35v17.4c0,2.37.99,4.58,3.59,4.58v1.37c-1.91,0-4.2-.31-6.79-.31-2.29,0-4.58.31-6.49.31v-1.37c2.6,0,3.59-2.21,3.59-4.58v-20.68Z" fill="#fff"/>
  <path d="m103.65,25.53h1.68c2.44,2.6,4.66,5.5,7.18,8.09l32.74,33.89v-25.19c0-13.36-.92-14.43-5.88-15.42v-1.37c2.98,0,5.19.31,7.4.31s4.43-.31,6.64-.31v1.37c-4.12.99-5.04,2.06-5.04,5.95v45.95h-1.68l-39.23-40.53v29.08c0,8.01.92,9.08,5.34,10.07v1.37c-2.52,0-4.73-.31-6.94-.31-2.9,0-5.11.31-7.02.31v-1.37c3.89-.99,4.81-2.06,4.81-5.95V25.53Z" fill="#fff"/>
  <path d="m187.46,77.28c14.27,0,20.3-11.14,20.3-25.11s-6.03-25.11-20.3-25.11-20.3,11.14-20.3,25.11,6.03,25.11,20.3,25.11m0-52.67c15.88,0,27.55,11.91,27.55,27.55s-11.68,27.55-27.55,27.55-27.55-11.91-27.55-27.55,11.68-27.55,27.55-27.55" fill="#fff"/>
  <path d="m227.54,53.77c0-25.65-.31-26.26-4.43-26.87v-1.37c2.75,0,5.04.3,7.33.3,2.6,0,4.88-.3,6.79-.3v1.37c-2.6,0-3.59,2.21-3.59,4.58,0,3.66-.46,15.26-.46,22.29s.46,16.18.46,22.14h15.11c5.8,0,8.17-2.06,10.15-6.26l1.22.38-1.91,9.16c-1.3-.38-4.2-.53-7.48-.61-3.28-.08-6.95-.08-9.77-.08s-5.72.08-8.55.15c-2.82.08-5.65.15-8.47.15v-1.37c2.6,0,3.59-2.21,3.59-4.58v-19.08Z" fill="#fff"/>
  <path d="m272.8,72.17c0,3.28,1.37,4.5,7.79,4.5,15.8,0,26.1-6.49,26.1-23.36,0-15.8-10.53-26.1-25.34-26.1-6.87,0-7.79.46-8.01,6.49-.23,5.5-.53,10.91-.53,16.41v22.06Zm-6.11-40.68c0-2.37-.99-4.58-3.74-4.58v-1.37c3.74,0,7.33.3,10.92.3s7.17-.3,10.76-.3c16.33,0,29.31,10.99,29.31,28.32,0,16.33-13.2,24.96-29.31,24.96-3.59,0-7.17-.31-10.76-.31s-7.17.31-10.76.31v-1.37c2.6,0,3.59-2.21,3.59-4.58V31.48Z" fill="#fff"/>
  <path d="m344.71,47.82c0-3.05-1.91-5.19-4.89-5.19-3.13,0-5.04,2.21-5.04,4.65,0,4.2,2.06,5.65,4.88,8.17,2.75-1.15,5.04-3.05,5.04-7.63m-8.02,11.3c-2.75,1.98-5.34,3.97-5.34,7.63,0,5.95,5.5,9.24,9.77,9.24,3.51,0,6.56-1.83,8.7-4.5l-13.13-12.36Zm14.27,13.51c-3.05,3.89-6.95,7.1-12.14,7.1-5.95,0-11.3-4.35-11.3-10.53,0-5.11,3.59-8.93,8.01-11.14-2.44-2.29-4.58-4.89-4.58-8.24,0-4.43,3.59-8.55,8.55-8.55,4.05,0,9.01,1.6,9.01,7.02,0,2.98-3.51,6.87-7.18,8.47l11.53,10.99c1.14-1.68,2.98-5.72,2.98-7.63,0-2.6-.92-2.9-3.28-3.43v-1.37c1.83.15,3.66.46,5.49.46s3.66-.31,5.49-.46v1.37c-1.91.23-3.13.84-3.97,1.68-.84.92-4.05,9.16-5.49,10.84,2.44,2.67,5.88,6.49,9.31,7.79.76.3,1.6.38,2.6.46v1.37c-1.6-.15-3.2-.31-4.81-.31s-3.21.15-4.81.31l-5.42-6.18Z" fill="#fff"/>
  <path d="m25.19,151.28L4.66,104.19c-1.83-4.28-2.9-4.96-4.66-5.72v-1.37c2.29,0,4.58.3,6.87.3s4.58-.3,6.72-.3v1.37c-1.45.23-2.59.76-2.59,1.83,0,.53.08,1.22.99,3.43l16.03,38.01,7.33-14.81-10.84-25.26c-.76-1.6-1.45-2.75-4.43-3.21v-1.37c2.37,0,4.73.3,7.1.3s4.66-.3,7.02-.3v1.37c-1.98.15-2.82.84-2.9,1.76,0,.53.23,1.45.69,2.75l6.79,17.17,7.48-15.8c.53-1.15.69-2.06.69-2.82,0-1.68-.31-2.44-2.67-3.05v-1.37c1.98,0,3.97.3,5.95.3s3.97-.3,5.95-.3v1.37c-2.67.23-5.04,3.51-6.64,6.72l-9.16,18.93,7.33,17.1,15.65-34.73c.84-1.76,1.14-3.51,1.14-4.96,0-1.6-.46-2.52-3.28-3.05v-1.37c2.14,0,4.27.3,6.41.3s4.27-.3,6.41-.3v1.37c-3.74,1.22-7.48,8.4-13.51,21.83l-13.89,30.99h-1.53l-8.09-20.76-10.3,20.76h-1.53Z" fill="#fff"/>
  <path d="m93.05,98.46c-2.98,0-3.82,2.21-3.82,4.58l-.38,41.37c0,2.37,1.22,4.58,3.51,4.58v1.37c-1.6,0-3.89-.31-6.49-.31-2.29,0-4.58.31-6.11.31v-1.37c2.14,0,3.36-2.21,3.36-4.58l-.38-41.37c0-2.37-.84-4.58-3.82-4.58v-1.37c2.37,0,4.66.31,6.95.31,2.6,0,4.89-.31,7.17-.31v1.37Z" fill="#fff"/>
  <path d="m104.65,97.09h1.68c2.44,2.6,4.66,5.5,7.18,8.09l32.74,33.89v-25.19c0-13.36-.92-14.43-5.88-15.42v-1.37c2.98,0,5.19.31,7.4.31s4.43-.31,6.64-.31v1.37c-4.12.99-5.04,2.06-5.04,5.95v45.95h-1.68l-39.23-40.53v29.08c0,8.01.92,9.08,5.34,10.08v1.37c-2.52,0-4.73-.31-6.94-.31-2.9,0-5.11.31-7.02.31v-1.37c3.89-.99,4.81-2.06,4.81-5.95v-45.95Z" fill="#fff"/>
  <path d="m164.03,97.09h1.68c2.44,2.6,4.66,5.5,7.18,8.09l32.74,33.89v-25.19c0-13.36-.92-14.43-5.88-15.42v-1.37c2.98,0,5.19.31,7.4.31s4.43-.31,6.64-.31v1.37c-4.12.99-5.04,2.06-5.04,5.95v45.95h-1.68l-39.23-40.53v29.08c0,8.01.92,9.08,5.34,10.08v1.37c-2.52,0-4.73-.31-6.95-.31-2.9,0-5.11.31-7.02.31v-1.37c3.89-.99,4.81-2.06,4.81-5.95v-45.95Z" fill="#fff"/>
  <path d="m234.41,98.46c-2.98,0-3.82,2.21-3.82,4.58l-.38,41.37c0,2.37,1.22,4.58,3.51,4.58v1.37c-1.6,0-3.89-.31-6.49-.31-2.29,0-4.58.31-6.1.31v-1.37c2.14,0,3.36-2.21,3.36-4.58l-.38-41.37c0-2.37-.84-4.58-3.82-4.58v-1.37c2.37,0,4.66.31,6.94.31,2.6,0,4.89-.31,7.18-.31v1.37Z" fill="#fff"/>
  <path d="m275.4,105.41h-1.38c-.76-3.43-3.59-5.42-10-5.42h-11.91c-.46,3.36-.61,9.54-.61,14.04v7.71h13.36c4.27,0,5.73-.99,6.57-3.89h1.37c-.08,1.6-.23,3.36-.23,5.11s.15,3.51.23,5.19h-1.37c-.84-2.82-2.29-3.82-6.57-3.82h-13.36v23.13h15.87c4.89,0,7.02-2.21,8.4-5.27l1.22.23-1.15,8.32c-1.3-.31-2.67-.46-4.27-.53-1.53-.15-3.44-.15-5.88-.15h-24.58v-1.07c3.13-.15,4.27-1.22,4.27-4.58v-21.22c0-23.66-.3-24.27-4.27-24.42v-1.37h30.38c1.68,0,2.14-.46,2.52-1.22h1.38v9.24Z" fill="#fff"/>
  <path d="m312.65,122.66c0,1.6.46,2.98,6.11,2.98,9.01,0,11.76-6.11,11.76-13.36,0-6.79-2.52-13.2-12.67-13.2-3.97,0-4.89.46-4.89,3.82,0,1.6-.31,5.11-.31,9.69v10.08Zm-6.26-19.62c0-2.37-.99-4.58-3.74-4.58v-1.37c2.9,0,5.8.3,8.7.3s5.8-.3,8.7-.3c8.09,0,17.1,4.12,17.1,15.34,0,9.69-8.78,15.04-17.48,15.04-2.59,0-4.89-.31-7.02-.46l-.15,17.4c0,2.37.99,4.58,3.59,4.58v1.37c-1.91,0-4.2-.31-6.79-.31-2.29,0-4.58.31-6.49.31v-1.37c2.6,0,3.59-2.21,3.59-4.58v-41.37Z" fill="#fff"/>
  <path d="m347.83,131.97h19.16l-9.01-24.88-10.15,24.88Zm-1.22,3.13l-2.44,6.72c-.53,1.45-.53,3.36-.53,4.12,0,1.37,1.37,2.37,3.28,3.05v1.37c-1.91,0-3.89-.31-5.8-.31s-3.97.31-6.34.31v-1.37c3.82-1.22,4.35-3.05,5.73-6.41l18.47-46.41h1.3l16.56,46.41c1.3,3.66,2.36,5.04,6.03,6.41v1.37c-2.29,0-4.58-.31-6.87-.31s-4.58.31-6.87.31v-1.37c.99-.69,2.67-1.68,2.67-2.59,0-1.22-.46-2.21-.84-3.28l-2.98-8.02h-21.37Z" fill="#fff"/>
  <path d="m391.8,125.33c0-25.65-.31-26.26-4.43-26.87v-1.37c2.75,0,5.04.3,7.33.3,2.6,0,4.88-.3,6.79-.3v1.37c-2.59,0-3.59,2.21-3.59,4.58,0,3.66-.46,15.26-.46,22.29s.46,16.18.46,22.14h15.11c5.8,0,8.17-2.06,10.15-6.26l1.22.38-1.91,9.16c-1.3-.38-4.2-.53-7.48-.61-3.28-.08-6.95-.08-9.77-.08s-5.73.08-8.55.15c-2.82.08-5.65.15-8.47.15v-1.37c2.59,0,3.59-2.21,3.59-4.58v-19.08Z" fill="#fff"/>
  <path d="m460.42,139.91l21.37-43.74h1.3l2.21,45.42c.3,6.18.76,6.87,4.12,7.4v1.37c-2.21,0-4.5-.31-7.17-.31-2.21,0-4.5.31-6.41.31v-1.37c3.21-.23,3.82-2.44,3.82-5.19,0-2.9-.15-5.34-.23-6.56l-1.53-27.1h-.31l-18.93,38.55-22.06-38.62h-.38l-1.45,23.97c-.15,1.98-.15,5.49-.15,7.48,0,5.34,2.14,7.17,4.73,7.48v1.37c-2.14,0-4.35-.31-6.64-.31s-4.35.31-6.56.31v-1.37c4.05-.92,4.65-2.21,5.11-8.85l2.9-43.96h1.37l24.88,43.74Z" fill="#fff"/>
  <path d="m529.12,105.41h-1.38c-.76-3.43-3.59-5.42-10-5.42h-11.91c-.46,3.36-.61,9.54-.61,14.04v7.71h13.36c4.27,0,5.73-.99,6.57-3.89h1.37c-.08,1.6-.23,3.36-.23,5.11s.15,3.51.23,5.19h-1.37c-.84-2.82-2.29-3.82-6.57-3.82h-13.36v23.13h15.87c4.89,0,7.02-2.21,8.4-5.27l1.22.23-1.15,8.32c-1.3-.31-2.67-.46-4.27-.53-1.53-.15-3.43-.15-5.88-.15h-24.58v-1.07c3.13-.15,4.27-1.22,4.27-4.58v-21.22c0-23.66-.3-24.27-4.27-24.42v-1.37h30.38c1.68,0,2.14-.46,2.52-1.22h1.38v9.24Z" fill="#fff"/>
  <path d="m547.13,124.57c.92.15,2.14.46,3.51.46,8.4,0,13.89-5.04,13.89-12.75s-4.73-13.36-13.43-13.36c-3.05,0-3.66.15-3.66,2.6,0,3.51-.3,7.63-.3,10.92v12.14Zm-6.11-.84c0-6.87-.31-13.81-.31-19.31,0-3.97-.84-5.96-4.2-5.96v-1.37c3.66,0,10.23-.46,14.27-.46,10.53,0,20.38,3.97,20.38,15.8,0,7.1-6.34,12.14-12.9,13.81l16.87,19.62c1.6,1.91,2.98,2.52,4.81,3.13v1.37c-1.98,0-3.97-.31-5.95-.31s-3.97.31-5.96.31v-1.37c.23-.15.61-.38.61-.53,0-.23-.3-.84-.61-1.22l-13.05-15.88c-1.83-2.21-4.2-3.97-7.86-4.35v17.4c0,2.37.99,4.58,3.59,4.58v1.37c-1.91,0-4.2-.31-6.79-.31-2.29,0-4.58.31-6.49.31v-1.37c2.6,0,3.59-2.21,3.59-4.58v-20.68Z" fill="#fff"/>
  <path d="m389.41,161.95h9.21c.51,0,.97-.14,1.58-.37-.02.67-.05,1.18-.05,1.69,0,.46.02.93.05,1.39h-.88c-.35-1.09-1.13-1.6-2.38-1.6h-3.29c-.02,1.9-.05,3.96-.07,6.16h3.24c.88,0,1.71-.25,1.85-1.25h.74c-.02.67-.05,1.32-.05,1.99,0,.58.02,1.18.04,1.76h-.74c-.26-1.09-.95-1.39-1.85-1.39h-3.24c0,1.85-.02,3.87-.02,5.86,0,.79.56,1.32,1.43,1.32v.51c-.88,0-1.74-.09-2.61-.09s-1.71.09-2.59.09v-.51c.93-.16,1.3-.53,1.3-1.51v-4.65c0-2.78-.32-6.2-.32-7.62,0-.79-.55-1.09-1.34-1.27v-.51Z" fill="#fff"/>
  <path d="m414.73,177.33c3.93,0,5.76-3.56,5.76-7.38,0-3.82-1.83-7.38-5.76-7.39-3.93,0-5.76,3.56-5.77,7.38,0,3.82,1.83,7.38,5.76,7.39m0-15.74c5.35,0,8.98,3.01,8.98,8.36,0,5.35-3.64,8.36-8.98,8.35-5.35,0-8.98-3.01-8.98-8.36,0-5.35,3.64-8.35,8.98-8.35" fill="#fff"/>
  <path d="m429.25,161.87c.83,0,1.67.09,2.52.09s1.69-.09,2.52-.09v.51c-1.04.14-1.3.83-1.3,2.32,0,2.2-.02,4.4-.02,6.6,0,3.1,1.43,5.3,4.88,5.3,1.87,0,4.26-1.09,4.26-3.7v-2.73c0-2.73-.21-5.46-.21-6.62,0-.65-.62-1.09-1.18-1.16v-.51c.83,0,1.67.09,2.5.09.83,0,1.69-.09,2.52-.09v.51c-.77.02-1.09.93-1.09,1.71,0,.88-.07,3.29-.07,6.34v5.05c0,1.3.25,1.97,1.27,2.04v.51c-.65,0-1.32-.09-1.97-.09s-1.3.09-1.95.09c.05-.79.12-1.5.16-2.2-1.69,1.57-3.12,2.48-5.49,2.48-3.43,0-6.13-1.97-6.13-5.44v-3.86c0-1.81-.11-3.4-.11-4.84,0-.9-.16-1.64-1.13-1.78v-.51Z" fill="#fff"/>
  <path d="m450.85,177.52c.9-.23,1.43-.93,1.43-2.22l.07-13.7h.97l11.32,12.46v-7.96c0-2.87-.62-3.54-1.73-3.7v-.51c.77,0,1.53.09,2.29.09s1.55-.09,2.32-.09v.51c-1.02.19-1.53.99-1.53,2.87l-.07,13.05h-.79l-11.5-12.52.09,8.82c.02,1.8.58,2.64,1.69,2.92v.51c-.76,0-1.53-.09-2.29-.09s-1.51.09-2.27.09v-.51Z" fill="#fff"/>
  <path d="m476.27,176.92c1.09.14,1.99.19,2.87.19,4.42,0,6.64-2.71,6.64-7.15,0-4.19-2.91-7.15-7.01-7.15-.74,0-1.46.05-2.38.09-.02,2.04-.12,3.89-.12,5.83v8.19Zm-3.68.6c.95-.23,1.2-.65,1.2-1.64v-6.74c0-2.04-.23-3.84-.23-4.98,0-.97-.35-1.64-1.2-1.88v-.42c1.09,0,2.15.09,3.24.09,1.07,0,2.15-.09,3.24-.09,6.32,0,10.16,2.78,10.16,7.99,0,5.3-3.01,8.17-9.52,8.17-1.16,0-2.31-.09-3.45-.09s-2.29.09-3.45.09v-.51Z" fill="#fff"/>
  <path d="m502.82,172.23l-2.34-6.09-2.25,6.09h4.58Zm-5.02,1.11l-.62,2.04c-.12.39-.16.9-.16,1.16,0,.56.28,1,.83,1v.51c-.67,0-1.32-.09-1.99-.09s-1.32.09-1.99.09v-.51c.93-.18,1.81-2.36,2.25-3.47l4.93-12.45h.28l5.07,13.01c.81,2.06,1.02,2.82,1.85,2.92v.51c-.79,0-1.55-.09-2.34-.09s-1.55.09-2.34.09v-.51c.49,0,.76-.32.76-.86,0-.32-.12-.72-.28-1.18l-.81-2.15h-5.44Z" fill="#fff"/>
  <path d="m525.39,164.87h-.88c-.23-1.37-.93-1.78-2.24-1.78h-2.92c0,1.99-.12,4.54-.12,7.31v4.93c0,1.43.44,1.88,1.46,2.2v.51c-.9,0-1.78-.09-2.66-.09-.88,0-1.76.09-2.66.09v-.51c1.07-.35,1.39-.86,1.39-2.2v-3.63c0-3.33-.18-6.62-.23-8.61h-3.12c-1.32,0-2.01.42-2.25,1.78h-.88v-3.26c.44.12.88.21,1.34.28.44.05.9.09,1.34.09h10.23c.65,0,1.67-.14,2.2-.37v3.26Z" fill="#fff"/>
  <path d="m535,162.4c-.86.14-.95.74-.95,1.55,0,2.24-.09,4.98-.09,7.43v4.49c0,.76.25,1.64,1.13,1.67v.51c-.79,0-1.6-.09-2.38-.09s-1.6.09-2.39.09v-.51c.74-.02,1.16-.67,1.16-1.67v-3.33c0-2.78-.21-6.85-.2-8.31,0-.95-.09-1.71-1.04-1.83v-.51c.79,0,1.57.09,2.38.09s1.6-.09,2.38-.09v.51Z" fill="#fff"/>
  <path d="m549.63,177.36c3.93,0,5.76-3.56,5.76-7.38,0-3.82-1.83-7.38-5.76-7.39-3.94,0-5.77,3.56-5.77,7.38,0,3.82,1.83,7.38,5.76,7.39m0-15.74c5.35,0,8.98,3.01,8.98,8.36,0,5.35-3.64,8.35-8.98,8.35s-8.98-3.01-8.98-8.36,3.64-8.35,8.98-8.35" fill="#fff"/>
  <path d="m563.84,177.54c.9-.23,1.43-.93,1.43-2.22l.07-13.7h.97l11.32,12.46v-7.96c0-2.87-.62-3.54-1.73-3.7v-.51c.77,0,1.53.09,2.29.09s1.55-.09,2.32-.09v.51c-1.02.19-1.53.99-1.53,2.87l-.07,13.05h-.79l-11.5-12.52.09,8.82c.02,1.8.58,2.64,1.69,2.92v.51c-.77,0-1.53-.09-2.29-.09s-1.51.09-2.27.09v-.51Z" fill="#fff"/>
  <path d="m469.18,84.67h.13l1.59-3.18h.02v2.4c0,.46.01.48-.53.53v.23h1.97v-.23c-.54-.05-.53-.07-.53-.53v-2.76c0-.35.1-.52.59-.54v-.23h-1.22l-1.64,3.16-1.56-3.16h-1.42v.23c.32,0,.61.21.75.54v2.57c0,.51-.05.68-.54.73v.23h1.41v-.23c-.5-.04-.56-.21-.56-.73v-2.2h.02l1.53,3.17Zm-4.49-4.08h.51c.43,0,.61.32.69.69h.23v-.94h-3.8v.94h.23c.08-.37.28-.69.7-.69h.51v3.3c0,.46.01.48-.54.53v.23h1.98v-.23c-.55-.05-.53-.07-.53-.53v-3.3Z" fill="#fff"/>
  <path d="m440.13,17.28l2.56-2.91c.63-.73.56-1.82-.15-2.46-.72-.64-1.82-.57-2.46.15l-2.56,2.91c-22.9-19.07-54.45-17.84-74.15-7.93,0,0,3.89-.15,11.52,10.15,5.93,8,5.84,14.41,5.84,14.41,0,0,6.93.55,15.41,9.87,5.11,5.62,6.56,10.03,6.9,12.65l-27.76,31.51c-.64.73-.57,1.82.15,2.46.72.64,1.82.57,2.46-.16l27.74-31.49c2.64,0,7.21.86,13.46,5.25,10.31,7.22,11.73,14.04,11.73,14.04,0,0,6.35-.89,15.03,3.98,11.19,6.27,11.48,10.11,11.48,10.11,7.39-20.77,4.63-52.24-17.19-72.55Zm-57.03,12.1s-.32-10.85-14.1-22.1c0,0,36.47-14.1,65.55,7.91,0,0,.02,0,.03,0,.04.03.08.07.13.11.75.57,1.5,1.19,2.24,1.81h0c-.74-.62-1.48-1.24-2.24-1.81-.05-.04-.11-.08-.16-.12-14.68-4.82-31.94-2.13-51.45,14.18Zm49.53,43.65c-10.9-20.05-26.96-19.42-26.96-19.42l31.78-36.07c.96.87,1.88,1.75,2.76,2.64,6.64,13.96,6.15,31.44-7.58,52.86Z" fill="#fff"/>
</svg>