<?xml version="1.0" encoding="UTF-8"?> <svg xmlns="http://www.w3.org/2000/svg" id="uuid-f7514a00-2085-4272-b2fb-fbf377c0b63e" width="278.31" height="331.47" viewBox="0 0 278.31 331.47"><path d="M256.49,56.19v132.27l-1.3.22c-5.41.87-11.04,1.73-16.45,2.16V62.47c-70.57-30.52-128.59-30.52-199.16,0v55.4c-7.4-9-13.44-18.97-17.75-29.95v-31.73c0-3.25,1.95-6.28,4.98-7.58,79.66-35.72,145.04-35.72,224.7,0,3.03,1.3,4.98,4.33,4.98,7.58Z" style="fill:#fff; stroke-width:0px;"></path><path d="M71.92,109.49h-6.86c-1.09,0-2.01.37-2.75,1.11-.74.74-1.11,1.66-1.11,2.75v35.46c0,1.09.37,2.01,1.11,2.75.74.74,1.66,1.11,2.75,1.11h6.86c1.09,0,2.01-.37,2.75-1.11.74-.74,1.11-1.66,1.11-2.75v-35.46c0-1.09-.37-2.01-1.11-2.75-.74-.74-1.66-1.11-2.75-1.11ZM65.52,115.17c-.09-.09-.18-.17-.27-.25h4.38c.22,0,.39.06.52.19.13.13.19.3.19.52v30.88c0,.22-.06.39-.19.52-.13.13-.3.19-.52.19h-2.29c-.23,0-.39-.06-.52-.19-.13-.13-.19-.3-.19-.52v-28.6c0-1.09-.37-2.01-1.11-2.75ZM62.77,114.49h0,0Z" style="fill:#fff; stroke-width:0px;"></path><path d="M97.72,109.49h-2.29c-.45,0-.83.15-1.13.44-.29.3-.44.68-.44,1.13v35.46c0,.22-.06.39-.19.52-.13.13-.3.19-.52.19h-4.38c.09-.08.18-.16.27-.25.74-.74,1.11-1.66,1.11-2.75v-33.17c0-.45-.15-.83-.44-1.13-.3-.29-.68-.44-1.13-.44h-2.29c-.45,0-.83.15-1.13.44-.29.29-.44.67-.44,1.13v37.75c0,1.09.37,2.02,1.11,2.75.74.74,1.66,1.11,2.75,1.11h9.15c.46,0,.84-.15,1.13-.44.29-.29.44-.67.44-1.13v-40.03c0-.45-.15-.84-.44-1.13-.3-.29-.68-.44-1.13-.44Z" style="fill:#fff; stroke-width:0px;"></path><path d="M121.23,109.49h-11.44c-.46,0-.84.15-1.13.44s-.44.68-.44,1.13v2.29c0,.46.15.84.44,1.13.29.29.67.44,1.13.44h2.29c.22,0,.39.06.52.19.13.13.19.3.19.52v35.46c0,.46.15.84.44,1.13.29.3.67.45,1.13.45h2.29c.46,0,.84-.15,1.13-.44.3-.29.44-.68.44-1.13v-33.17c0-1.09-.37-2.01-1.11-2.75-.09-.09-.18-.17-.27-.25h4.38c.46,0,.84-.15,1.13-.44.29-.29.44-.67.44-1.13v-2.29c0-.45-.15-.83-.44-1.13-.3-.29-.68-.44-1.13-.44Z" style="fill:#fff; stroke-width:0px;"></path><path d="M142.46,109.49h-9.15c-.46,0-.84.15-1.13.44-.29.29-.44.68-.44,1.13v40.03c0,.46.15.84.44,1.13.29.3.67.44,1.13.44h2.29c.46,0,.84-.15,1.13-.44.29-.29.44-.68.44-1.13v-11.44c0-1.09-.37-2.01-1.11-2.75-.09-.09-.18-.17-.27-.25h6.67c1.09,0,2.01-.37,2.75-1.11.74-.74,1.11-1.66,1.11-2.75v-19.44c0-1.09-.37-2.01-1.11-2.75-.74-.74-1.66-1.11-2.75-1.11ZM136.06,115.17c-.09-.09-.18-.17-.27-.25h4.38c.22,0,.39.06.52.19.13.13.19.3.19.52v14.87c0,.22-.06.39-.19.52s-.3.19-.52.19h-2.29c-.22,0-.39-.06-.52-.19-.13-.13-.19-.3-.19-.52v-12.58c0-1.09-.37-2.01-1.11-2.75Z" style="fill:#fff; stroke-width:0px;"></path><path d="M165.97,109.49h-6.86c-1.09,0-2.01.37-2.75,1.11-.74.74-1.11,1.66-1.11,2.75v35.46c0,1.09.37,2.02,1.11,2.75.74.74,1.66,1.11,2.75,1.11h6.86c1.09,0,2.01-.37,2.75-1.11.74-.74,1.11-1.66,1.11-2.75v-35.46c0-1.09-.37-2.01-1.11-2.75-.74-.74-1.66-1.11-2.75-1.11ZM159.57,115.17c-.09-.09-.18-.17-.27-.25h4.38c.22,0,.39.06.52.19.13.13.19.3.19.52v30.88c0,.22-.06.39-.19.52-.13.13-.3.19-.52.19h-2.29c-.23,0-.39-.06-.52-.19-.13-.13-.19-.29-.19-.52v-28.6c0-1.09-.37-2.01-1.11-2.75Z" style="fill:#fff; stroke-width:0px;"></path><path d="M189.48,109.49h-6.86c-1.09,0-2.01.37-2.75,1.11-.74.74-1.11,1.66-1.11,2.75v14.87c0,1.09.37,2.01,1.11,2.75.74.74,1.66,1.11,2.75,1.11h4.58c.22,0,.39.06.52.19.13.13.19.3.19.52v13.73c0,.22-.06.39-.19.52-.13.13-.3.19-.52.19h-2.29c-.23,0-.39-.06-.52-.19-.13-.13-.19-.3-.19-.52v-2.29c0-.45-.15-.84-.44-1.13-.3-.29-.68-.44-1.13-.44h-2.29c-.46,0-.84.15-1.13.44-.29.29-.44.67-.44,1.13v4.58c0,1.09.37,2.01,1.11,2.75.74.74,1.66,1.11,2.75,1.11h6.86c1.09,0,2.01-.37,2.75-1.11.74-.74,1.11-1.66,1.11-2.75v-18.3c0-1.09-.37-2.01-1.11-2.75-.74-.74-1.66-1.11-2.75-1.11h-4.58c-.22,0-.39-.06-.52-.19-.13-.13-.19-.3-.19-.52v-8.01c0-1.09-.37-2.01-1.11-2.75-.09-.09-.18-.17-.27-.25h4.38c.22,0,.39.06.52.19.13.13.19.3.19.52v2.29c0,.46.15.84.44,1.13.29.29.67.44,1.13.44h2.29c.46,0,.84-.15,1.13-.44.3-.3.44-.68.44-1.13v-4.57c0-1.09-.37-2.01-1.11-2.75-.74-.74-1.66-1.11-2.75-1.11ZM180.33,114.49h0,0Z" style="fill:#fff; stroke-width:0px;"></path><path d="M215.28,109.49h-11.44c-.45,0-.83.15-1.13.44-.3.3-.44.68-.44,1.13v2.29c0,.46.15.84.44,1.13.29.29.67.44,1.13.44h2.29c.22,0,.39.06.52.19.13.13.19.3.19.52v35.46c0,.46.15.84.44,1.13.29.3.67.45,1.13.45h2.29c.46,0,.84-.15,1.13-.44.3-.3.44-.68.44-1.13v-33.17c0-1.09-.37-2.01-1.11-2.75-.09-.09-.18-.17-.27-.25h4.38c.46,0,.84-.15,1.13-.44.29-.29.44-.67.44-1.13v-2.29c0-.45-.15-.83-.44-1.13-.3-.29-.68-.44-1.13-.44Z" style="fill:#fff; stroke-width:0px;"></path><path d="M62.59,103.87c.27.27.62.41,1.04.41h2.04c.42,0,.77-.15,1.04-.43.27-.28.4-.63.4-1.06l-.02-10.43c0-1.01-.34-1.84-1.01-2.47-.06-.06-.12-.11-.18-.16,1.95-.17,3.91-.33,5.85-.49.98-.08,1.81-.5,2.45-1.25.65-.75.97-1.65.97-2.68l-.06-18.51c0-1.05-.35-1.89-1.02-2.48-.68-.6-1.54-.8-2.53-.59-2.68.56-5.39,1.15-8.05,1.77-.39.09-.72.29-.96.6-.25.31-.37.67-.37,1.07v35.66c0,.42.14.77.41,1.04ZM70.09,84.08c-.12.13-.26.2-.45.22-.67.07-1.35.14-2.02.22-.23.02-.33-.04-.39-.1-.06-.06-.14-.16-.14-.41l-.02-11.48c0-1.02-.35-1.83-1.02-2.39-.06-.05-.12-.1-.18-.14,1.29-.26,2.58-.51,3.87-.76.21-.04.31.01.36.06.03.03.13.12.13.39l.03,13.87c0,.21-.06.38-.17.52Z" style="fill:#fff; stroke-width:0px;"></path><path d="M87.6,103.76c.26-.29.39-.67.39-1.12l-.05-11.49c0-1.09-.34-2-1-2.7-.09-.09-.18-.18-.27-.26,1.3-.08,2.61-.16,3.9-.23.17-.01.29.03.39.14.12.13.17.3.17.54l.07,13.99c0,.45.13.83.39,1.12.27.31.64.47,1.06.47h2.03c.43,0,.79-.17,1.06-.48.25-.3.38-.68.38-1.14l-.19-38.98c0-1.12-.35-2.03-1.01-2.71-.69-.7-1.54-.98-2.55-.83-2.02.29-4.07.61-6.09.93-.97.16-1.79.66-2.43,1.5-.64.82-.96,1.78-.95,2.83l.16,37.34c0,.44.14.82.4,1.1.27.3.63.46,1.05.46h2.03c.43,0,.78-.16,1.06-.47ZM88.06,82.47c-.11-.12-.16-.28-.17-.51l-.06-12.64c0-1.1-.35-1.98-1.01-2.64-.09-.09-.19-.17-.28-.25,1.32-.19,2.64-.38,3.95-.55.21-.03.3.04.37.1.11.11.16.28.16.5l.07,15.16c0,.24-.06.44-.18.59-.11.14-.25.21-.43.22-.68.05-1.35.1-2.03.15-.22.02-.32-.06-.39-.13Z" style="fill:#fff; stroke-width:0px;"></path><path d="M109.46,104.2h2.03c.43,0,.8-.18,1.07-.5.25-.31.38-.7.38-1.16l-.13-35.69c0-1.15-.34-2.11-1-2.85-.11-.12-.22-.24-.34-.34,1.33-.1,2.66-.2,3.98-.29.42-.03.78-.22,1.05-.56.25-.32.37-.72.37-1.18v-2.48c0-.47-.14-.86-.4-1.16-.28-.32-.66-.47-1.09-.43-3.39.26-6.83.57-10.21.93-.42.04-.77.24-1.03.58-.25.32-.37.71-.37,1.17v2.42c.01.47.15.85.41,1.14.28.31.66.44,1.1.4.68-.06,1.36-.13,2.04-.19.17-.01.28.03.38.13.12.13.17.32.18.57l.16,37.85c0,.46.13.85.39,1.15.27.32.64.49,1.07.49ZM109.3,63.39h0Z" style="fill:#fff; stroke-width:0px;"></path><path d="M128.76,86.96c-.11-.14-.23-.26-.35-.38,1.32-.02,2.64-.04,3.96-.05.16,0,.29.05.4.18.13.16.19.36.19.64l.02,15.13c0,.47.13.87.38,1.18.27.33.64.51,1.07.51h2.03c.43,0,.8-.18,1.07-.51.25-.31.38-.71.38-1.18v-15.15c0-1.17-.34-2.17-.98-2.97-.28-.34-.58-.61-.92-.81.34-.2.64-.48.92-.82.64-.8.97-1.8.97-2.98v-18.94c-.01-1.17-.34-2.17-.99-2.96-.67-.82-1.53-1.23-2.53-1.21-2.72.06-5.48.14-8.19.26-.43.02-.79.21-1.06.55-.25.32-.38.72-.37,1.19l.1,43.87c0,.47.13.87.38,1.18.27.33.64.51,1.07.51h2.03c.43,0,.8-.18,1.07-.51.25-.31.38-.71.38-1.18l-.02-12.58c0-1.17-.33-2.16-.98-2.95ZM129.91,80.48c-.12-.15-.19-.36-.19-.63l-.02-13.84c0-1.17-.33-2.16-.99-2.94-.11-.14-.23-.26-.36-.37,1.33-.04,2.66-.08,3.98-.11.18,0,.29.05.4.18.13.15.19.36.19.63l.02,16.39c0,.27-.06.49-.19.64-.11.14-.23.2-.4.2-.68,0-1.36.02-2.04.03-.18,0-.29-.05-.4-.18Z" style="fill:#fff; stroke-width:0px;"></path><path d="M149.27,56.66c-.68-.02-1.37-.03-2.05-.04,0,0-.02,0-.03,0-.42,0-.79.17-1.05.5-.25.31-.38.71-.38,1.18l-.03,44.19c0,.47.13.87.38,1.18.27.33.64.51,1.07.51h2.03s0,0,0,0c.43,0,.8-.18,1.07-.51.25-.31.38-.71.38-1.18l.06-44.11c0-.47-.13-.87-.38-1.19-.27-.34-.64-.52-1.07-.53Z" style="fill:#fff; stroke-width:0px;"></path><path d="M168.26,57.63c-2.04-.16-4.1-.3-6.14-.43-1.01-.06-1.86.31-2.54,1.1-.65.76-.99,1.74-.99,2.91l-.1,38.79c0,1.16.32,2.16.96,2.95.66.82,1.51,1.24,2.51,1.24h6.1s0,0,0,0c.99,0,1.84-.41,2.51-1.21.65-.78.98-1.76.98-2.9l.15-38.08c0-1.14-.32-2.14-.96-2.97-.66-.85-1.5-1.33-2.49-1.4ZM160.04,62.51h0,0ZM162.56,63.43c-.11-.13-.22-.26-.33-.37,1.3.07,2.61.15,3.91.23.18.01.31.08.42.23.13.17.19.38.19.65l-.11,33.29v.12c0,.26-.06.47-.19.62-.1.13-.23.18-.39.18h0l-2.03-.02c-.17,0-.3-.06-.4-.19-.12-.15-.18-.36-.18-.63l.09-31.12c0-1.15-.32-2.15-.96-2.98Z" style="fill:#fff; stroke-width:0px;"></path><path d="M180.95,64.54c.68.07,1.35.14,2.03.22.18.02.32.1.44.25.13.17.19.37.19.63l-.17,36.95c0,.46.13.84.38,1.14.27.32.63.48,1.06.49h2.03s0,0,0,0c.42,0,.79-.16,1.06-.47.26-.3.39-.68.39-1.13l.16-34.15c0-1.09-.31-2.07-.95-2.89-.08-.11-.17-.21-.26-.31,1.27.15,2.54.31,3.79.48.43.06.81-.06,1.1-.35.27-.27.41-.64.41-1.1v-2.32c.01-.44-.11-.82-.36-1.15-.26-.33-.6-.53-1.01-.6-3.36-.49-6.79-.95-10.18-1.34-.44-.05-.82.08-1.1.38-.27.28-.4.66-.4,1.13v2.41c-.01.46.11.85.36,1.16.26.33.61.53,1.03.58Z" style="fill:#fff; stroke-width:0px;"></path><path d="M209.83,104.26h0c.98,0,1.81-.35,2.48-1.05.66-.69,1-1.55,1-2.56l.04-16.98c0-1-.32-1.89-.97-2.66-.65-.77-1.47-1.22-2.44-1.33-1.35-.16-2.7-.32-4.05-.48-.19-.02-.33-.1-.45-.24-.12-.15-.18-.33-.18-.55l.03-7.73c0-1.03-.32-1.97-.95-2.77-.06-.08-.13-.15-.19-.23,1.23.2,2.46.42,3.68.63.19.03.35.12.47.28.12.16.19.34.18.56v2.17c0,.42.12.79.37,1.1.25.31.59.51,1,.57.67.11,1.34.22,2.02.33.54.09.89-.1,1.08-.28.28-.25.43-.6.43-1.04v-4.24c.01-.99-.31-1.91-.94-2.72-.64-.81-1.45-1.33-2.4-1.52-2.01-.41-4.05-.81-6.06-1.18-1-.19-1.85.04-2.54.68-.67.62-1.01,1.49-1.02,2.57l-.06,14.61c0,1.06.32,1.99.96,2.76.65.78,1.48,1.22,2.46,1.31,1.35.12,2.7.25,4.05.38.19.02.33.09.44.22.12.14.18.31.18.53l-.04,13c0,.21-.05.36-.16.48-.11.11-.23.16-.41.15l-2.03-.05c-.18,0-.31-.06-.42-.18-.11-.13-.17-.3-.17-.51v-2.21c0-.43-.12-.8-.38-1.1-.26-.3-.62-.47-1.04-.48l-2.03-.08c-.42-.02-.79.13-1.07.42-.27.28-.4.65-.4,1.1l-.02,4.5c0,1.07.32,1.98.97,2.7.66.74,1.5,1.11,2.49,1.11h6.1Z" style="fill:#fff; stroke-width:0px;"></path><path d="M220.05,66.1c-.25-.31-.57-.51-.96-.6-.67-.16-1.34-.31-2.01-.46-.54-.12-.89.05-1.09.21-.2.16-.44.47-.44,1.03v6.26c-.01.41.12.77.37,1.08.25.31.58.5.98.57.67.12,1.34.24,2.01.36.11.02.21.03.3.03.37,0,.62-.14.78-.27.2-.16.43-.47.44-1.02v-6.11c0-.4-.12-.76-.37-1.07Z" style="fill:#fff; stroke-width:0px;"></path><path d="M190.69,174.11c4.05,0,8.11-.05,12.16.03,1.47.03,2.13-.46,2.54-1.91,1.15-4.03,2.48-8.01,3.9-12.51,1.38,4.21,2.67,7.87,3.75,11.59.6,2.05,1.48,3.04,3.86,2.87,3.69-.26,7.41-.07,11.89-.07-3.69,2.67-6.71,5.04-9.93,7.1-1.74,1.12-1.88,2.19-1.22,3.98,1.36,3.71,2.51,7.49,3.95,11.9-4.43-3.18-8.32-5.99-12.3-8.85-3.89,2.85-7.75,5.67-12.01,8.79,1.62-5.02,3.1-9.61,4.62-14.33-3.86-2.73-7.65-5.42-11.45-8.11.08-.16.16-.32.23-.48Z" style="fill:#fff; stroke-width:0px;"></path><path d="M149.03,174.84c3.36,0,6.73-.05,10.09.02,1.22.03,1.77-.38,2.11-1.58.95-3.35,2.06-6.65,3.24-10.38,1.14,3.49,2.21,6.53,3.12,9.62.5,1.7,1.23,2.52,3.2,2.38,3.06-.22,6.15-.06,9.86-.06-3.06,2.21-5.57,4.18-8.25,5.89-1.44.93-1.56,1.82-1.01,3.3,1.13,3.08,2.08,6.22,3.28,9.87-3.67-2.64-6.91-4.97-10.21-7.34-3.23,2.37-6.43,4.71-9.96,7.3,1.35-4.17,2.57-7.97,3.84-11.89-3.2-2.27-6.35-4.5-9.5-6.73.06-.13.13-.27.19-.4Z" style="fill:#fff; stroke-width:0px;"></path><path d="M116.65,171.85c2.38,0,4.76-.03,7.14.02.87.02,1.25-.27,1.49-1.12.67-2.37,1.46-4.7,2.29-7.35.81,2.47,1.57,4.62,2.2,6.81.35,1.21.87,1.78,2.27,1.68,2.17-.15,4.35-.04,6.98-.04-2.17,1.57-3.94,2.96-5.84,4.17-1.02.66-1.1,1.29-.72,2.34.8,2.18,1.47,4.4,2.32,6.99-2.6-1.87-4.89-3.52-7.22-5.2-2.29,1.68-4.55,3.33-7.05,5.17.95-2.95,1.82-5.64,2.72-8.42-2.27-1.6-4.5-3.18-6.73-4.76.05-.09.09-.19.14-.28Z" style="fill:#fff; stroke-width:0px;"></path><path d="M91.3,165.45c1.49,0,2.97-.02,4.46.01.54.01.78-.17.93-.7.42-1.48.91-2.94,1.43-4.59.5,1.54.98,2.88,1.38,4.25.22.75.54,1.11,1.42,1.05,1.35-.1,2.72-.03,4.36-.03-1.35.98-2.46,1.85-3.64,2.6-.64.41-.69.8-.45,1.46.5,1.36.92,2.75,1.45,4.36-1.62-1.17-3.05-2.19-4.51-3.24-1.43,1.05-2.84,2.08-4.4,3.22.59-1.84,1.14-3.52,1.7-5.25-1.41-1-2.81-1.99-4.2-2.97.03-.06.06-.12.09-.18Z" style="fill:#fff; stroke-width:0px;"></path><path d="M21.83,109.92c0,29.8,0,59.61,0,89.41,0,3.24,1.07,6.4,3.01,9.27,27.26,39.75,65.87,76.37,114.32,101.05,10.7-5.42,20.93-11.46,30.67-18-56.24-15.69-103.26-59.06-133.57-102.41,45.22,49.26,102.36,81.38,161.32,81.37,8.12-6.91,15.8-14.15,23.01-21.65-61.62,3.5-119.5-25.75-156.46-60.5,56.1,39.05,119.36,50.9,175.5,38.84,4.9-6.12,9.52-12.35,13.85-18.7,1.93-2.87,3.01-6.03,3.01-9.27v-.61c-36.67,10.71-87.58,9.96-133.03-5.75-45.5-15.25-85.54-45.45-101.63-83.05Z" style="fill:#fff; stroke-width:0px;"></path></svg> 