<?xml version="1.0" encoding="UTF-8"?> <svg xmlns="http://www.w3.org/2000/svg" xmlns:xlink="http://www.w3.org/1999/xlink" id="uuid-d4f058eb-e4a8-438c-9567-50dacfb14309" width="278.31" height="331.47" viewBox="0 0 278.31 331.47"><defs><linearGradient id="uuid-2bbcbaa9-717f-4bae-8a0e-fb14d86eda97" x1="21.83" y1="209.78" x2="256.49" y2="209.78" gradientUnits="userSpaceOnUse"><stop offset="0" stop-color="#d72028"></stop><stop offset="1" stop-color="#a81f24"></stop></linearGradient></defs><path d="M256.49,56.19v132.27l-1.3.22c-5.41.87-11.04,1.73-16.45,2.16V62.47c-70.57-30.52-128.59-30.52-199.16,0v55.4c-7.4-9-13.44-18.97-17.75-29.95v-31.73c0-3.25,1.95-6.28,4.98-7.58,79.66-35.72,145.04-35.72,224.7,0,3.03,1.3,4.98,4.33,4.98,7.58Z" style="fill:#1b75ba; stroke-width:0px;"></path><path d="M71.92,109.92c.97,0,1.79.33,2.45.98.66.66.98,1.47.98,2.45v35.46c0,.97-.33,1.79-.98,2.45-.66.66-1.47.98-2.45.98h-6.86c-.97,0-1.79-.33-2.45-.98-.66-.66-.98-1.47-.98-2.45v-35.46c0-.97.33-1.79.98-2.45.66-.66,1.47-.98,2.45-.98h6.86ZM70.78,115.64c0-.34-.11-.61-.32-.83-.21-.21-.49-.32-.83-.32h-6.86c.97,0,1.79.33,2.45.98.66.66.99,1.47.99,2.45v28.6c0,.34.1.61.32.83.21.21.49.32.83.32.76,0,1.53,0,2.29,0,.34,0,.61-.11.83-.32.21-.21.32-.49.32-.83,0-10.29,0-20.59,0-30.88Z" style="stroke:#000; stroke-miterlimit:10; stroke-width:.86px;"></path><path d="M88.57,109.92c.34,0,.61.11.83.32.21.21.32.49.32.83v33.17c0,.97-.33,1.79-.98,2.45-.66.66-1.47.98-2.45.98,2.29,0,4.58,0,6.86,0,.34,0,.61-.11.83-.32.21-.21.32-.49.32-.83v-35.46c0-.34.1-.61.32-.83.21-.21.49-.32.83-.32h2.29c.34,0,.61.11.83.32.21.21.32.49.32.83,0,13.34,0,26.69,0,40.03,0,.34-.11.61-.32.83-.21.21-.49.32-.83.32h-9.15c-.97,0-1.79-.33-2.45-.98-.66-.66-.98-1.47-.98-2.45v-37.75c0-.34.1-.61.32-.83.21-.21.49-.32.83-.32h2.29Z" style="stroke:#000; stroke-miterlimit:10; stroke-width:.86px;"></path><path d="M114.37,152.24c-.34,0-.61-.11-.83-.32-.21-.21-.32-.49-.32-.83v-35.46c0-.34-.11-.61-.32-.83-.21-.21-.49-.32-.83-.32h-2.29c-.34,0-.61-.11-.83-.32-.21-.21-.32-.49-.32-.83v-2.29c0-.34.11-.61.32-.83.21-.21.49-.32.83-.32h11.44c.34,0,.61.11.83.32.21.21.32.49.32.83v2.29c0,.34-.11.61-.32.83-.21.21-.49.32-.83.32h-6.86c.97,0,1.79.33,2.45.98.66.66.98,1.47.98,2.45v33.17c0,.34-.11.61-.32.83-.21.21-.49.32-.83.32h-2.29Z" style="stroke:#000; stroke-miterlimit:10; stroke-width:.86px;"></path><path d="M142.46,109.92c.97,0,1.79.33,2.45.98.66.66.98,1.47.98,2.45v19.44c0,.97-.33,1.79-.98,2.45-.66.66-1.47.98-2.45.98h-9.15c.97,0,1.79.33,2.45.98.66.66.98,1.47.98,2.45v11.44c0,.34-.11.61-.32.83-.21.21-.49.32-.83.32h-2.29c-.34,0-.61-.11-.83-.32-.21-.21-.32-.49-.32-.83v-40.03c0-.34.11-.61.32-.83.21-.21.49-.32.83-.32h9.15ZM141.31,115.64c0-.34-.11-.61-.32-.83-.21-.21-.49-.32-.83-.32h-6.86c.97,0,1.79.33,2.45.98.66.66.99,1.47.98,2.45v12.58c0,.34.11.61.32.83.21.21.49.32.83.32h2.29c.34,0,.61-.11.83-.32.21-.21.32-.49.32-.83v-14.87Z" style="stroke:#000; stroke-miterlimit:10; stroke-width:.86px;"></path><path d="M165.97,109.92c.97,0,1.79.33,2.45.98.66.66.99,1.47.98,2.45v35.46c0,.97-.33,1.79-.98,2.45-.66.66-1.47.98-2.45.98h-6.86c-.97,0-1.79-.33-2.45-.98-.66-.66-.99-1.47-.98-2.45v-35.46c0-.97.33-1.79.98-2.45.66-.66,1.47-.98,2.45-.98h6.86ZM164.82,115.64c0-.34-.11-.61-.32-.83-.21-.21-.49-.32-.83-.32h-6.86c.97,0,1.79.33,2.45.98.66.66.98,1.47.98,2.45,0,9.53,0,19.06,0,28.6,0,.34.1.61.32.83.21.21.49.32.83.32.76,0,1.52,0,2.29,0,.34,0,.61-.11.83-.32.21-.21.32-.49.32-.83v-30.88Z" style="stroke:#000; stroke-miterlimit:10; stroke-width:.86px;"></path><path d="M189.48,109.92c.97,0,1.79.33,2.45.98.66.66.98,1.47.98,2.45v4.58c0,.34-.11.61-.32.83-.21.21-.49.32-.83.32h-2.29c-.34,0-.61-.11-.83-.32-.21-.21-.32-.49-.32-.83v-2.29c0-.34-.11-.61-.32-.83-.21-.21-.49-.32-.83-.32h-6.86c.97,0,1.79.33,2.45.98.66.66.98,1.47.98,2.45v8.01c0,.34.11.61.32.83.21.21.49.32.83.32h4.58c.97,0,1.79.33,2.45.98.66.66.98,1.47.98,2.45v18.3c0,.97-.33,1.79-.98,2.45-.66.66-1.47.98-2.45.98h-6.86c-.97,0-1.79-.33-2.45-.98-.66-.66-.98-1.47-.98-2.45v-4.58c0-.34.1-.61.32-.83.21-.21.49-.32.83-.32.76,0,1.52,0,2.29,0,.34,0,.61.11.83.32.21.21.32.49.32.83v2.29c0,.34.11.61.32.83.21.21.49.32.83.32.76,0,1.53,0,2.29,0,.34,0,.61-.11.83-.32.21-.21.32-.49.32-.83v-13.73c0-.34-.11-.61-.32-.83-.21-.21-.49-.32-.83-.32h-4.57c-.97,0-1.79-.33-2.45-.98-.66-.66-.98-1.47-.98-2.45v-14.87c0-.97.33-1.79.98-2.45.66-.66,1.47-.98,2.45-.98h6.86Z" style="stroke:#000; stroke-miterlimit:10; stroke-width:.86px;"></path><path d="M208.41,152.24c-.34,0-.61-.11-.83-.32-.21-.21-.32-.49-.32-.83v-35.46c0-.34-.11-.61-.32-.83-.21-.21-.49-.32-.83-.32h-2.29c-.34,0-.61-.11-.83-.32-.21-.21-.32-.49-.32-.83v-2.29c0-.34.11-.61.32-.83.21-.21.49-.32.83-.32h11.44c.34,0,.61.11.83.32.21.21.32.49.32.83v2.29c0,.34-.11.61-.32.83-.21.21-.49.32-.83.32h-6.86c.97,0,1.79.33,2.45.98.66.66.98,1.47.98,2.45v33.17c0,.34-.11.61-.32.83-.21.21-.49.32-.83.32h-2.29Z" style="stroke:#000; stroke-miterlimit:10; stroke-width:.86px;"></path><path d="M71.65,64.15c.86-.18,1.58-.01,2.16.49.58.51.87,1.23.88,2.16.02,6.17.04,12.34.06,18.51,0,.93-.29,1.73-.86,2.4-.58.67-1.3,1.03-2.16,1.1-2.7.21-5.4.44-8.09.68.86-.08,1.58.16,2.16.7.58.55.87,1.27.87,2.16,0,3.48.01,6.96.02,10.43,0,.31-.09.56-.28.75-.19.19-.43.29-.73.29-.68,0-1.35,0-2.03,0-.3,0-.55-.09-.73-.28-.19-.19-.28-.43-.28-.73,0-11.89,0-23.77,0-35.66,0-.3.09-.57.28-.8.19-.23.43-.38.72-.45,2.67-.62,5.35-1.21,8.04-1.77ZM70.66,69.7c0-.32-.09-.56-.28-.72-.19-.16-.43-.21-.73-.16-2.01.38-4.02.78-6.03,1.2.85-.18,1.57-.03,2.15.45.58.48.87,1.17.87,2.06,0,3.83.01,7.65.02,11.48,0,.31.09.55.28.72.19.17.43.24.73.21.67-.07,1.35-.14,2.02-.21.3-.03.54-.15.73-.37.19-.22.28-.48.28-.8-.01-4.62-.02-9.24-.03-13.87Z" style="stroke:#000; stroke-miterlimit:10; stroke-width:.86px;"></path><path d="M92.43,60.5c.86-.12,1.59.11,2.18.71.59.6.88,1.4.89,2.41.06,12.99.12,25.99.19,38.98,0,.35-.09.64-.28.85-.19.22-.43.33-.73.33-.68,0-1.35,0-2.03,0-.3,0-.55-.11-.74-.32-.19-.22-.28-.49-.29-.84-.02-4.66-.04-9.33-.07-13.99,0-.35-.1-.62-.29-.83-.19-.2-.43-.3-.73-.28-2.03.12-4.06.24-6.09.37.86-.06,1.59.23,2.17.85.59.62.88,1.43.89,2.41.02,3.83.04,7.66.05,11.49,0,.34-.09.62-.28.83-.19.21-.43.32-.73.32-.68,0-1.35,0-2.03,0-.3,0-.55-.1-.74-.31-.19-.21-.28-.48-.29-.82-.05-12.45-.11-24.89-.16-37.34,0-.96.28-1.82.86-2.57.58-.75,1.3-1.2,2.16-1.34,2.03-.33,4.05-.64,6.08-.93ZM91.45,66.48c0-.35-.1-.61-.29-.81-.19-.19-.43-.27-.73-.23-2.03.27-4.06.56-6.08.87.86-.13,1.59.09,2.17.67.58.58.88,1.36.88,2.34.02,4.21.04,8.43.06,12.64,0,.34.1.61.29.81.19.2.43.29.73.26.68-.05,1.35-.1,2.03-.15.3-.02.54-.15.73-.38.19-.23.28-.52.28-.86-.02-5.05-.05-10.11-.07-15.16Z" style="stroke:#000; stroke-miterlimit:10; stroke-width:.86px;"></path><path d="M109.46,103.77c-.3,0-.55-.11-.74-.34-.19-.23-.28-.52-.29-.88-.05-12.62-.1-25.23-.16-37.85,0-.36-.1-.65-.29-.86-.19-.21-.44-.3-.74-.27-.68.06-1.36.12-2.04.19-.3.03-.55-.06-.74-.27-.19-.21-.29-.49-.29-.85,0-.81,0-1.61-.01-2.42,0-.36.09-.66.28-.9.19-.24.43-.38.73-.42,3.4-.36,6.8-.67,10.2-.93.3-.02.55.07.74.29.19.22.29.51.29.87,0,.83,0,1.65,0,2.48,0,.37-.09.67-.28.91-.19.24-.43.37-.74.39-2.04.14-4.08.29-6.12.46.87-.07,1.6.22,2.18.88.59.66.88,1.52.89,2.57.04,11.9.09,23.79.13,35.69,0,.37-.09.66-.28.89-.19.23-.43.34-.73.34-.68,0-1.35,0-2.03,0Z" style="stroke:#000; stroke-miterlimit:10; stroke-width:.86px;"></path><path d="M137.45,79.75c0,1.08-.29,1.98-.88,2.71-.59.73-1.31,1.1-2.18,1.1.87,0,1.59.35,2.18,1.07.59.72.88,1.62.88,2.7,0,5.05,0,10.1,0,15.15,0,.38-.09.68-.28.91-.19.23-.43.35-.73.35-.68,0-1.35,0-2.03,0-.3,0-.55-.12-.73-.35-.19-.23-.28-.54-.28-.91,0-5.04-.01-10.09-.02-15.13,0-.37-.1-.68-.28-.91-.19-.23-.43-.35-.74-.34-2.04.02-4.07.05-6.11.08.87-.02,1.59.33,2.18,1.05.59.71.88,1.61.88,2.68,0,4.19.01,8.39.02,12.58,0,.37-.09.68-.28.91-.19.23-.43.35-.73.35-.68,0-1.35,0-2.03,0-.3,0-.55-.12-.73-.35-.19-.23-.28-.53-.28-.9-.03-14.62-.07-29.24-.1-43.87,0-.37.09-.68.28-.92.19-.24.43-.37.74-.38,2.73-.12,5.45-.21,8.18-.26.87-.02,1.6.33,2.19,1.05.59.72.88,1.61.88,2.69,0,6.31,0,12.63.01,18.94ZM133.35,63.4c0-.37-.1-.67-.29-.9-.19-.23-.44-.34-.74-.33-2.04.05-4.09.11-6.13.19.87-.03,1.6.3,2.19,1,.59.7.88,1.59.88,2.66,0,4.61.02,9.22.02,13.84,0,.37.1.67.28.9.19.23.43.34.74.34.68-.01,1.36-.02,2.04-.03.3,0,.55-.12.74-.36.19-.24.28-.54.28-.91,0-5.46-.01-10.93-.02-16.39Z" style="stroke:#000; stroke-miterlimit:10; stroke-width:.86px;"></path><path d="M147.17,103.75c-.3,0-.55-.12-.73-.35-.19-.23-.28-.54-.28-.91.01-14.73.02-29.46.03-44.19,0-.37.09-.68.29-.91.19-.23.44-.34.74-.34.68.01,1.36.03,2.05.04.3,0,.55.13.74.37.19.24.28.54.28.92-.02,14.7-.04,29.41-.06,44.11,0,.37-.1.68-.28.91-.19.23-.43.35-.73.35-.68,0-1.35,0-2.03,0Z" style="stroke:#000; stroke-miterlimit:10; stroke-width:.86px;"></path><path d="M168.22,58.06c.87.07,1.6.48,2.18,1.24.58.76.87,1.66.87,2.7-.05,12.69-.1,25.39-.15,38.08,0,1.05-.3,1.92-.88,2.62-.59.71-1.31,1.06-2.18,1.06-2.03,0-4.06,0-6.1,0-.87,0-1.59-.36-2.17-1.08-.58-.72-.87-1.61-.87-2.68.03-12.93.06-25.86.1-38.79,0-1.07.3-1.94.89-2.63.59-.69,1.32-1,2.19-.95,2.04.12,4.09.27,6.13.43ZM167.18,64.17c0-.37-.09-.67-.28-.91-.19-.24-.43-.37-.74-.39-2.04-.13-4.08-.25-6.13-.35.87.04,1.6.44,2.18,1.19.58.75.87,1.65.87,2.71-.03,10.37-.06,20.75-.09,31.12,0,.37.09.67.28.9.19.23.43.35.73.35.68,0,1.36.01,2.03.02.3,0,.55-.11.74-.34.19-.23.28-.52.29-.89.04-11.14.08-22.27.12-33.41Z" style="stroke:#000; stroke-miterlimit:10; stroke-width:.86px;"></path><path d="M184.88,103.78c-.3,0-.55-.11-.73-.33-.19-.22-.28-.51-.28-.86.06-12.32.12-24.63.17-36.95,0-.35-.09-.65-.28-.89-.19-.24-.43-.38-.73-.41-.68-.07-1.36-.15-2.03-.22-.3-.03-.55-.17-.73-.41-.19-.24-.28-.54-.28-.9,0-.8,0-1.61.01-2.41,0-.36.1-.64.29-.84.19-.2.43-.28.74-.25,3.39.4,6.78.84,10.16,1.34.3.04.54.19.73.43.19.24.28.54.28.88,0,.77,0,1.55-.01,2.32,0,.34-.1.61-.29.8-.19.19-.43.27-.73.23-2.03-.27-4.06-.52-6.09-.75.87.1,1.59.53,2.17,1.27.58.75.87,1.62.86,2.62-.05,11.38-.11,22.77-.16,34.15,0,.35-.1.63-.29.85-.19.22-.43.33-.74.33-.68,0-1.35,0-2.03,0Z" style="stroke:#000; stroke-miterlimit:10; stroke-width:.86px;"></path><path d="M209.95,63.95c.86.18,1.57.63,2.15,1.37.58.73.86,1.55.86,2.45,0,1.41,0,2.83,0,4.24,0,.31-.09.55-.28.72-.19.17-.43.22-.73.17-.67-.11-1.34-.22-2.02-.33-.3-.05-.54-.19-.73-.42-.19-.23-.28-.51-.28-.83,0-.72,0-1.44,0-2.17,0-.32-.09-.6-.28-.83-.19-.23-.43-.38-.73-.43-2.02-.36-4.04-.7-6.06-1.02.86.14,1.58.58,2.16,1.31.58.73.87,1.56.86,2.5,0,2.58-.02,5.15-.03,7.73,0,.33.09.6.28.83.19.23.43.36.73.39,1.35.15,2.7.31,4.05.48.86.11,1.58.5,2.16,1.19.58.68.87,1.47.86,2.38-.01,5.66-.03,11.32-.04,16.98,0,.9-.3,1.66-.88,2.26-.59.61-1.31.91-2.18.91-2.03,0-4.06,0-6.1-.01-.87,0-1.59-.32-2.17-.97-.58-.65-.87-1.45-.86-2.41,0-1.5.01-3,.02-4.5,0-.33.1-.6.29-.8.19-.2.43-.29.73-.28.68.03,1.35.05,2.03.08.3.01.54.13.73.34.19.21.28.48.28.81,0,.74,0,1.47,0,2.21,0,.33.09.6.28.8.19.21.43.32.73.32.68.02,1.35.03,2.03.05.3,0,.54-.09.73-.28.19-.2.28-.45.28-.78.01-4.33.03-8.67.04-13,0-.32-.09-.59-.28-.81-.19-.22-.43-.34-.73-.37-1.35-.13-2.7-.26-4.05-.38-.86-.08-1.58-.46-2.16-1.16-.58-.7-.87-1.53-.86-2.48.02-4.87.04-9.74.06-14.61,0-.96.3-1.71.88-2.25.58-.54,1.3-.73,2.17-.57,2.02.38,4.04.77,6.05,1.18Z" style="stroke:#000; stroke-miterlimit:10; stroke-width:.86px;"></path><path d="M216.98,73.76c-.3-.05-.54-.19-.73-.42-.19-.23-.28-.49-.28-.8,0-2.09,0-4.17,0-6.26,0-.31.09-.54.28-.69.19-.15.43-.19.73-.13.67.15,1.34.31,2.01.46.3.07.54.22.72.45.19.23.28.5.28.8,0,2.04,0,4.08,0,6.11,0,.3-.09.53-.28.68-.19.15-.43.2-.73.15-.67-.12-1.34-.24-2.01-.36Z" style="stroke:#000; stroke-miterlimit:10; stroke-width:.86px;"></path><path d="M190.69,174.11c4.05,0,8.11-.05,12.16.03,1.47.03,2.13-.46,2.54-1.91,1.15-4.03,2.48-8.01,3.9-12.51,1.38,4.21,2.67,7.87,3.75,11.59.6,2.05,1.48,3.04,3.86,2.87,3.69-.26,7.41-.07,11.89-.07-3.69,2.67-6.71,5.04-9.93,7.1-1.74,1.12-1.88,2.19-1.22,3.98,1.36,3.71,2.51,7.49,3.95,11.9-4.43-3.18-8.32-5.99-12.3-8.85-3.89,2.85-7.75,5.67-12.01,8.79,1.62-5.02,3.1-9.61,4.62-14.33-3.86-2.73-7.65-5.42-11.45-8.11.08-.16.16-.32.23-.48Z" style="fill:#1b75ba; stroke-width:0px;"></path><path d="M149.03,174.84c3.36,0,6.73-.05,10.09.02,1.22.03,1.77-.38,2.11-1.58.95-3.35,2.06-6.65,3.24-10.38,1.14,3.49,2.21,6.53,3.12,9.62.5,1.7,1.23,2.52,3.2,2.38,3.06-.22,6.15-.06,9.86-.06-3.06,2.21-5.57,4.18-8.25,5.89-1.44.93-1.56,1.82-1.01,3.3,1.13,3.08,2.08,6.22,3.28,9.87-3.67-2.64-6.91-4.97-10.21-7.34-3.23,2.37-6.43,4.71-9.96,7.3,1.35-4.17,2.57-7.97,3.84-11.89-3.2-2.27-6.35-4.5-9.5-6.73.06-.13.13-.27.19-.4Z" style="fill:#1b75ba; stroke-width:0px;"></path><path d="M116.65,171.86c2.38,0,4.76-.03,7.14.02.87.02,1.25-.27,1.49-1.12.67-2.37,1.46-4.7,2.29-7.35.81,2.47,1.57,4.62,2.2,6.81.35,1.21.87,1.78,2.27,1.68,2.17-.15,4.35-.04,6.98-.04-2.17,1.57-3.94,2.96-5.84,4.17-1.02.66-1.1,1.29-.72,2.34.8,2.18,1.47,4.4,2.32,6.99-2.6-1.87-4.89-3.52-7.22-5.2-2.29,1.68-4.55,3.33-7.05,5.17.95-2.95,1.82-5.64,2.72-8.42-2.27-1.6-4.5-3.18-6.73-4.76.05-.09.09-.19.14-.28Z" style="fill:#1b75ba; stroke-width:0px;"></path><path d="M91.3,165.45c1.49,0,2.97-.02,4.46.01.54.01.78-.17.93-.7.42-1.48.91-2.94,1.43-4.59.5,1.54.98,2.88,1.38,4.25.22.75.54,1.11,1.42,1.05,1.35-.1,2.72-.03,4.36-.03-1.35.98-2.46,1.85-3.64,2.6-.64.41-.69.8-.45,1.46.5,1.36.92,2.75,1.45,4.36-1.62-1.17-3.05-2.19-4.51-3.24-1.43,1.05-2.84,2.08-4.4,3.22.59-1.84,1.14-3.52,1.7-5.25-1.41-1-2.81-1.99-4.2-2.97.03-.06.06-.12.09-.18Z" style="fill:#1b75ba; stroke-width:0px;"></path><path d="M21.83,109.92c0,29.8,0,59.61,0,89.41,0,3.24,1.07,6.4,3.01,9.27,27.26,39.75,65.87,76.37,114.32,101.05,10.7-5.42,20.93-11.46,30.67-18-56.24-15.69-103.26-59.06-133.57-102.41,45.22,49.26,102.36,81.38,161.32,81.37,8.12-6.91,15.8-14.15,23.01-21.65-61.62,3.5-119.5-25.75-156.46-60.5,56.1,39.05,119.36,50.9,175.5,38.84,4.9-6.12,9.52-12.35,13.85-18.7,1.93-2.87,3.01-6.03,3.01-9.27v-.61c-36.67,10.71-87.58,9.96-133.03-5.75-45.5-15.25-85.54-45.45-101.63-83.05Z" style="fill:url(#uuid-2bbcbaa9-717f-4bae-8a0e-fb14d86eda97); stroke-width:0px;"></path></svg> 